MozillaHeadline-Bold.ufo
<glyph name="numbersign" format="1">
  <advance width="629.64655"/>
  <unicode hex="0023"/>
  <outline>
    <contour>
      <point x="67" y="0" type="line"/>
      <point x="190" y="0" type="line"/>
      <point x="306" y="690" type="line"/>
      <point x="183" y="690" type="line"/>
    </contour>
    <contour>
      <point x="323" y="0" type="line"/>
      <point x="446" y="0" type="line"/>
      <point x="562" y="690" type="line"/>
      <point x="439" y="690" type="line"/>
    </contour>
    <contour>
      <point x="63" y="413" type="line"/>
      <point x="603" y="413" type="line"/>
      <point x="603" y="523" type="line"/>
      <point x="63" y="523" type="line"/>
    </contour>
    <contour>
      <point x="27" y="167" type="line"/>
      <point x="567" y="167" type="line"/>
      <point x="567" y="277" type="line"/>
      <point x="27" y="277" type="line"/>
    </contour>
  </outline>
</glyph>
<glyph name="dollar" format="1">
  <advance width="616.00862"/>
  <unicode hex="0024"/>
  <outline>
    <contour>
      <point x="309" y="-4" type="curve" smooth="yes"/>
      <point x="485" y="-4"/>
      <point x="581" y="65"/>
      <point x="581" y="199" type="curve" smooth="yes"/>
      <point x="581" y="305"/>
      <point x="526" y="361"/>
      <point x="403" y="391" type="curve" smooth="yes"/>
      <point x="265" y="422" type="line" smooth="yes"/>
      <point x="208" y="436"/>
      <point x="186" y="456"/>
      <point x="186" y="493" type="curve" smooth="yes"/>
      <point x="186" y="508" type="line" smooth="yes"/>
      <point x="186" y="557"/>
      <point x="228" y="581"/>
      <point x="307" y="581" type="curve" smooth="yes"/>
      <point x="395" y="581"/>
      <point x="435" y="544"/>
      <point x="435" y="475" type="curve" smooth="yes"/>
      <point x="435" y="448" type="line"/>
      <point x="581" y="448" type="line"/>
      <point x="566" y="623"/>
      <point x="482" y="694"/>
      <point x="307" y="694" type="curve" smooth="yes"/>
      <point x="133" y="694"/>
      <point x="39" y="625"/>
      <point x="39" y="491" type="curve" smooth="yes"/>
      <point x="39" y="386"/>
      <point x="91" y="329"/>
      <point x="214" y="299" type="curve" smooth="yes"/>
      <point x="352" y="268" type="line" smooth="yes"/>
      <point x="410" y="254"/>
      <point x="433" y="233"/>
      <point x="433" y="197" type="curve" smooth="yes"/>
      <point x="433" y="182" type="line" smooth="yes"/>
      <point x="433" y="134"/>
      <point x="389" y="109"/>
      <point x="309" y="109" type="curve" smooth="yes"/>
      <point x="218" y="109"/>
      <point x="179" y="145"/>
      <point x="179" y="215" type="curve" smooth="yes"/>
      <point x="179" y="242" type="line"/>
      <point x="32" y="242" type="line"/>
      <point x="47" y="67"/>
      <point x="133" y="-4"/>
    </contour>
    <contour>
      <point x="256" y="-92" type="line"/>
      <point x="362" y="-92" type="line"/>
      <point x="362" y="24" type="line"/>
      <point x="256" y="24" type="line"/>
    </contour>
    <contour>
      <point x="254" y="655" type="line"/>
      <point x="360" y="655" type="line"/>
      <point x="360" y="782" type="line"/>
      <point x="254" y="782" type="line"/>
    </contour>
  </outline>
</glyph>
<glyph name="ampersand" format="1">
  <advance width="685.56034"/>
  <unicode hex="0026"/>
  <outline>
    <contour>
      <point x="181" y="386" type="curve" smooth="yes"/>
      <point x="442" y="0" type="line"/>
      <point x="650" y="0" type="line"/>
      <point x="650" y="107" type="line"/>
      <point x="542" y="107" type="line"/>
      <point x="294" y="468" type="line" smooth="yes"/>
      <point x="271" y="498"/>
      <point x="263" y="516"/>
      <point x="263" y="537" type="curve" smooth="yes"/>
      <point x="263" y="567"/>
      <point x="283" y="583"/>
      <point x="320" y="583" type="curve" smooth="yes"/>
      <point x="437" y="583" type="line"/>
      <point x="437" y="483" type="line"/>
      <point x="558" y="483" type="line"/>
      <point x="558" y="690" type="line"/>
      <point x="311" y="690" type="line" smooth="yes"/>
      <point x="186" y="690"/>
      <point x="120" y="638"/>
      <point x="120" y="541" type="curve" smooth="yes"/>
      <point x="120" y="491"/>
      <point x="138" y="444"/>
    </contour>
    <contour>
      <point x="207" y="-10" type="curve" smooth="yes"/>
      <point x="286" y="-10"/>
      <point x="336" y="23"/>
      <point x="352" y="84" type="curve"/>
      <point x="399" y="84" type="line"/>
      <point x="370" y="124" type="line"/>
      <point x="335" y="108"/>
      <point x="300" y="101"/>
      <point x="267" y="101" type="curve" smooth="yes"/>
      <point x="211" y="101"/>
      <point x="186" y="126"/>
      <point x="186" y="182" type="curve" smooth="yes"/>
      <point x="186" y="217" type="line" smooth="yes"/>
      <point x="186" y="265"/>
      <point x="210" y="288"/>
      <point x="269" y="293" type="curve"/>
      <point x="226" y="380" type="line"/>
      <point x="94" y="361"/>
      <point x="35" y="304"/>
      <point x="35" y="190" type="curve" smooth="yes"/>
      <point x="35" y="59"/>
      <point x="95" y="-10"/>
    </contour>
    <contour>
      <point x="514" y="144" type="line"/>
      <point x="596" y="166"/>
      <point x="624" y="207"/>
      <point x="624" y="281" type="curve" smooth="yes"/>
      <point x="624" y="392" type="line"/>
      <point x="502" y="392" type="line"/>
      <point x="502" y="214" type="line"/>
      <point x="453" y="214" type="line"/>
    </contour>
  </outline>
</glyph>
<glyph name="parenright" format="1">
  <advance width="305.83621"/>
  <unicode hex="0029"/>
  <outline>
    <contour>
      <point x="122" y="782" type="curve"/>
      <point x="4" y="782" type="line"/>
      <point x="101" y="642"/>
      <point x="135" y="539"/>
      <point x="135" y="382" type="curve" smooth="yes"/>
      <point x="135" y="308" type="line" smooth="yes"/>
      <point x="135" y="151"/>
      <point x="101" y="48"/>
      <point x="4" y="-92" type="curve"/>
      <point x="122" y="-92" type="line"/>
      <point x="225" y="23"/>
      <point x="269" y="156"/>
      <point x="269" y="345" type="curve" smooth="yes"/>
      <point x="269" y="534"/>
      <point x="225" y="667"/>
    </contour>
  </outline>
</glyph>
<glyph name="hyphen" format="1">
  <advance width="338.68966"/>
  <unicode hex="002D"/>
  <outline>
    <contour>
      <point x="56" y="233" type="line"/>
      <point x="283" y="233" type="line"/>
      <point x="283" y="335" type="line"/>
      <point x="56" y="335" type="line"/>
    </contour>
  </outline>
</glyph>
<glyph name="slash" format="1">
  <advance width="378.68103"/>
  <unicode hex="002F"/>
  <outline>
    <contour>
      <point x="17" y="-92" type="line"/>
      <point x="152" y="-92" type="line"/>
      <point x="361" y="782" type="line"/>
      <point x="226" y="782" type="line"/>
    </contour>
  </outline>
</glyph>
<glyph name="zero" format="1">
  <advance width="660.18966"/>
  <unicode hex="0030"/>
  <outline>
    <contour>
      <point x="330" y="-10" type="curve" smooth="yes"/>
      <point x="522" y="-10"/>
      <point x="617" y="101"/>
      <point x="617" y="345" type="curve" smooth="yes"/>
      <point x="617" y="589"/>
      <point x="522" y="700"/>
      <point x="330" y="700" type="curve" smooth="yes"/>
      <point x="139" y="700"/>
      <point x="43" y="589"/>
      <point x="43" y="345" type="curve" smooth="yes"/>
      <point x="43" y="101"/>
      <point x="139" y="-10"/>
    </contour>
    <contour>
      <point x="330" y="101" type="curve" smooth="yes"/>
      <point x="235" y="101"/>
      <point x="194" y="151"/>
      <point x="194" y="266" type="curve" smooth="yes"/>
      <point x="194" y="424" type="line" smooth="yes"/>
      <point x="194" y="539"/>
      <point x="235" y="589"/>
      <point x="330" y="589" type="curve" smooth="yes"/>
      <point x="425" y="589"/>
      <point x="467" y="539"/>
      <point x="467" y="424" type="curve" smooth="yes"/>
      <point x="467" y="266" type="line" smooth="yes"/>
      <point x="467" y="151"/>
      <point x="425" y="101"/>
    </contour>
    <contour>
      <point x="150" y="94" type="line"/>
      <point x="248" y="92" type="line"/>
      <point x="511" y="596" type="line"/>
      <point x="412" y="598" type="line"/>
    </contour>
  </outline>
</glyph>
<glyph name="one" format="1">
  <advance width="463.75862"/>
  <unicode hex="0031"/>
  <outline>
    <contour>
      <point x="45" y="0" type="line"/>
      <point x="445" y="0" type="line"/>
      <point x="445" y="107" type="line"/>
      <point x="318" y="107" type="line"/>
      <point x="318" y="690" type="line"/>
      <point x="219" y="690" type="line"/>
      <point x="48" y="600" type="line"/>
      <point x="48" y="492" type="line"/>
      <point x="171" y="556" type="line"/>
      <point x="171" y="107" type="line"/>
      <point x="45" y="107" type="line"/>
    </contour>
  </outline>
</glyph>
<glyph name="two" format="1">
  <advance width="613.66379"/>
  <unicode hex="0032"/>
  <outline>
    <contour>
      <point x="46" y="142" type="curve" smooth="yes"/>
      <point x="46" y="0" type="line"/>
      <point x="561" y="0" type="line"/>
      <point x="561" y="211" type="line"/>
      <point x="439" y="211" type="line"/>
      <point x="439" y="111" type="line"/>
      <point x="119" y="111" type="line"/>
      <point x="190" y="44" type="line"/>
      <point x="190" y="146" type="line" smooth="yes"/>
      <point x="190" y="208"/>
      <point x="213" y="236"/>
      <point x="274" y="255" type="curve" smooth="yes"/>
      <point x="393" y="291" type="line" smooth="yes"/>
      <point x="515" y="327"/>
      <point x="569" y="387"/>
      <point x="569" y="491" type="curve" smooth="yes"/>
      <point x="569" y="498" type="line" smooth="yes"/>
      <point x="569" y="625"/>
      <point x="474" y="700"/>
      <point x="310" y="700" type="curve" smooth="yes"/>
      <point x="146" y="700"/>
      <point x="61" y="624"/>
      <point x="46" y="448" type="curve"/>
      <point x="191" y="448" type="line"/>
      <point x="191" y="476" type="line" smooth="yes"/>
      <point x="191" y="548"/>
      <point x="231" y="585"/>
      <point x="310" y="585" type="curve" smooth="yes"/>
      <point x="379" y="585"/>
      <point x="422" y="558"/>
      <point x="422" y="507" type="curve" smooth="yes"/>
      <point x="422" y="484" type="line" smooth="yes"/>
      <point x="422" y="443"/>
      <point x="399" y="420"/>
      <point x="342" y="403" type="curve" smooth="yes"/>
      <point x="223" y="367" type="line" smooth="yes"/>
      <point x="99" y="331"/>
      <point x="46" y="264"/>
    </contour>
  </outline>
</glyph>
<glyph name="three" format="1">
  <advance width="611.76724"/>
  <unicode hex="0033"/>
  <outline>
    <contour>
      <point x="302" y="-10" type="curve" smooth="yes"/>
      <point x="468" y="-10"/>
      <point x="566" y="62"/>
      <point x="566" y="191" type="curve" smooth="yes"/>
      <point x="566" y="279"/>
      <point x="520" y="331"/>
      <point x="438" y="336" type="curve"/>
      <point x="438" y="368" type="line"/>
      <point x="517" y="374"/>
      <point x="563" y="423"/>
      <point x="563" y="506" type="curve" smooth="yes"/>
      <point x="563" y="631"/>
      <point x="466" y="700"/>
      <point x="302" y="700" type="curve" smooth="yes"/>
      <point x="132" y="700"/>
      <point x="51" y="624"/>
      <point x="36" y="448" type="curve"/>
      <point x="184" y="448" type="line"/>
      <point x="184" y="478" type="line" smooth="yes"/>
      <point x="184" y="548"/>
      <point x="224" y="586"/>
      <point x="302" y="586" type="curve" smooth="yes"/>
      <point x="371" y="586"/>
      <point x="413" y="557"/>
      <point x="413" y="509" type="curve" smooth="yes"/>
      <point x="413" y="478" type="line" smooth="yes"/>
      <point x="413" y="428"/>
      <point x="385" y="401"/>
      <point x="329" y="401" type="curve" smooth="yes"/>
      <point x="209" y="401" type="line"/>
      <point x="209" y="303" type="line"/>
      <point x="328" y="303" type="line" smooth="yes"/>
      <point x="386" y="303"/>
      <point x="416" y="275"/>
      <point x="416" y="222" type="curve" smooth="yes"/>
      <point x="416" y="186" type="line" smooth="yes"/>
      <point x="416" y="134"/>
      <point x="373" y="104"/>
      <point x="302" y="104" type="curve" smooth="yes"/>
      <point x="223" y="104"/>
      <point x="181" y="142"/>
      <point x="181" y="212" type="curve" smooth="yes"/>
      <point x="181" y="242" type="line"/>
      <point x="33" y="242" type="line"/>
      <point x="48" y="65"/>
      <point x="132" y="-10"/>
    </contour>
  </outline>
</glyph>
<glyph name="eight" format="1">
  <advance width="630.27586"/>
  <unicode hex="0038"/>
  <outline>
    <contour>
      <point x="315" y="-10" type="curve" smooth="yes"/>
      <point x="485" y="-10"/>
      <point x="586" y="62"/>
      <point x="586" y="191" type="curve" smooth="yes"/>
      <point x="586" y="281"/>
      <point x="542" y="328"/>
      <point x="459" y="336" type="curve"/>
      <point x="459" y="368" type="line"/>
      <point x="538" y="376"/>
      <point x="579" y="420"/>
      <point x="579" y="506" type="curve" smooth="yes"/>
      <point x="579" y="631"/>
      <point x="481" y="700"/>
      <point x="315" y="700" type="curve" smooth="yes"/>
      <point x="149" y="700"/>
      <point x="51" y="631"/>
      <point x="51" y="506" type="curve" smooth="yes"/>
      <point x="51" y="420"/>
      <point x="91" y="376"/>
      <point x="172" y="368" type="curve"/>
      <point x="172" y="336" type="line"/>
      <point x="88" y="328"/>
      <point x="44" y="281"/>
      <point x="44" y="191" type="curve" smooth="yes"/>
      <point x="44" y="62"/>
      <point x="145" y="-10"/>
    </contour>
    <contour>
      <point x="315" y="104" type="curve" smooth="yes"/>
      <point x="236" y="104"/>
      <point x="195" y="133"/>
      <point x="195" y="187" type="curve" smooth="yes"/>
      <point x="195" y="222" type="line" smooth="yes"/>
      <point x="195" y="276"/>
      <point x="236" y="304"/>
      <point x="315" y="304" type="curve" smooth="yes"/>
      <point x="394" y="304"/>
      <point x="435" y="276"/>
      <point x="435" y="222" type="curve" smooth="yes"/>
      <point x="435" y="187" type="line" smooth="yes"/>
      <point x="435" y="133"/>
      <point x="394" y="104"/>
    </contour>
    <contour>
      <point x="315" y="400" type="curve" smooth="yes"/>
      <point x="240" y="400"/>
      <point x="201" y="427"/>
      <point x="201" y="477" type="curve" smooth="yes"/>
      <point x="201" y="509" type="line" smooth="yes"/>
      <point x="201" y="559"/>
      <point x="240" y="586"/>
      <point x="315" y="586" type="curve" smooth="yes"/>
      <point x="390" y="586"/>
      <point x="429" y="559"/>
      <point x="429" y="509" type="curve" smooth="yes"/>
      <point x="429" y="477" type="line" smooth="yes"/>
      <point x="429" y="427"/>
      <point x="390" y="400"/>
    </contour>
  </outline>
</glyph>
<glyph name="less" format="1">
  <advance width="474.58621"/>
  <unicode hex="003C"/>
  <outline>
    <contour>
      <point x="447" y="561" type="line"/>
      <point x="22" y="415" type="line"/>
      <point x="22" y="259" type="line"/>
      <point x="447" y="113" type="line"/>
      <point x="447" y="221" type="line"/>
      <point x="134" y="321" type="line"/>
      <point x="134" y="353" type="line"/>
      <point x="447" y="453" type="line"/>
    </contour>
  </outline>
</glyph>
<glyph name="greater" format="1">
  <advance width="474.58621"/>
  <unicode hex="003E"/>
  <outline>
    <contour>
      <point x="27" y="113" type="line"/>
      <point x="452" y="259" type="line"/>
      <point x="452" y="415" type="line"/>
      <point x="27" y="561" type="line"/>
      <point x="27" y="453" type="line"/>
      <point x="341" y="353" type="line"/>
      <point x="341" y="321" type="line"/>
      <point x="27" y="221" type="line"/>
    </contour>
  </outline>
</glyph>
<glyph name="at" format="1">
  <advance width="842.21552"/>
  <unicode hex="0040"/>
  <outline>
    <contour>
      <point x="421" y="-85" type="curve" smooth="yes"/>
      <point x="696" y="-85" type="line"/>
      <point x="696" y="7" type="line"/>
      <point x="421" y="7" type="line" smooth="yes"/>
      <point x="240" y="7"/>
      <point x="143" y="97"/>
      <point x="143" y="267" type="curve" smooth="yes"/>
      <point x="143" y="341" type="line" smooth="yes"/>
      <point x="143" y="510"/>
      <point x="240" y="600"/>
      <point x="421" y="600" type="curve" smooth="yes"/>
      <point x="602" y="600"/>
      <point x="698" y="510"/>
      <point x="698" y="341" type="curve" smooth="yes"/>
      <point x="698" y="264" type="line" smooth="yes"/>
      <point x="698" y="197"/>
      <point x="677" y="157"/>
      <point x="640" y="157" type="curve" smooth="yes"/>
      <point x="622" y="157"/>
      <point x="614" y="167"/>
      <point x="614" y="189" type="curve" smooth="yes"/>
      <point x="614" y="361" type="line" smooth="yes"/>
      <point x="614" y="470"/>
      <point x="548" y="529"/>
      <point x="425" y="529" type="curve" smooth="yes"/>
      <point x="312" y="529"/>
      <point x="244" y="479"/>
      <point x="228" y="375" type="curve"/>
      <point x="357" y="375" type="line"/>
      <point x="357" y="383" type="line" smooth="yes"/>
      <point x="357" y="407"/>
      <point x="376" y="432"/>
      <point x="423" y="432" type="curve" smooth="yes"/>
      <point x="467" y="432"/>
      <point x="488" y="409"/>
      <point x="488" y="358" type="curve" smooth="yes"/>
      <point x="488" y="288" type="line"/>
      <point x="488" y="276" type="line"/>
      <point x="488" y="218" type="line" smooth="yes"/>
      <point x="488" y="178"/>
      <point x="463" y="158"/>
      <point x="413" y="158" type="curve" smooth="yes"/>
      <point x="373" y="158"/>
      <point x="350" y="173"/>
      <point x="350" y="200" type="curve" smooth="yes"/>
      <point x="350" y="209" type="line" smooth="yes"/>
      <point x="350" y="236"/>
      <point x="364" y="252"/>
      <point x="415" y="257" type="curve" smooth="yes"/>
      <point x="488" y="264" type="line"/>
      <point x="488" y="344" type="line"/>
      <point x="376" y="332" type="line" smooth="yes"/>
      <point x="275" y="321"/>
      <point x="220" y="276"/>
      <point x="220" y="192" type="curve" smooth="yes"/>
      <point x="220" y="113"/>
      <point x="272" y="65"/>
      <point x="356" y="65" type="curve" smooth="yes"/>
      <point x="422" y="65"/>
      <point x="461" y="95"/>
      <point x="475" y="161" type="curve"/>
      <point x="504" y="161" type="line"/>
      <point x="509" y="101"/>
      <point x="557" y="65"/>
      <point x="633" y="65" type="curve" smooth="yes"/>
      <point x="748" y="65"/>
      <point x="808" y="146"/>
      <point x="808" y="304" type="curve" smooth="yes"/>
      <point x="808" y="551"/>
      <point x="664" y="693"/>
      <point x="421" y="693" type="curve" smooth="yes"/>
      <point x="178" y="693"/>
      <point x="35" y="551"/>
      <point x="35" y="304" type="curve" smooth="yes"/>
      <point x="35" y="57"/>
      <point x="178" y="-85"/>
    </contour>
  </outline>
</glyph>
<glyph name="B" format="1">
  <advance width="634.72414"/>
  <unicode hex="0042"/>
  <outline>
    <contour>
      <point x="77" y="0" type="line"/>
      <point x="379" y="0" type="line" smooth="yes"/>
      <point x="516" y="0"/>
      <point x="595" y="68"/>
      <point x="595" y="191" type="curve" smooth="yes"/>
      <point x="595" y="283"/>
      <point x="551" y="330"/>
      <point x="465" y="336" type="curve"/>
      <point x="465" y="368" type="line"/>
      <point x="544" y="374"/>
      <point x="588" y="419"/>
      <point x="588" y="506" type="curve" smooth="yes"/>
      <point x="588" y="624"/>
      <point x="510" y="690"/>
      <point x="376" y="690" type="curve" smooth="yes"/>
      <point x="14" y="690" type="line"/>
      <point x="14" y="583" type="line"/>
      <point x="77" y="583" type="line"/>
    </contour>
    <contour>
      <point x="369" y="107" type="curve" smooth="yes"/>
      <point x="223" y="107" type="line"/>
      <point x="223" y="303" type="line"/>
      <point x="369" y="303" type="line" smooth="yes"/>
      <point x="421" y="303"/>
      <point x="445" y="277"/>
      <point x="445" y="223" type="curve" smooth="yes"/>
      <point x="445" y="187" type="line" smooth="yes"/>
      <point x="445" y="132"/>
      <point x="421" y="107"/>
    </contour>
    <contour>
      <point x="367" y="401" type="curve" smooth="yes"/>
      <point x="223" y="401" type="line"/>
      <point x="223" y="583" type="line"/>
      <point x="367" y="583" type="line" smooth="yes"/>
      <point x="416" y="583"/>
      <point x="438" y="560"/>
      <point x="438" y="508" type="curve" smooth="yes"/>
      <point x="438" y="477" type="line" smooth="yes"/>
      <point x="438" y="426"/>
      <point x="416" y="401"/>
    </contour>
  </outline>
</glyph>
<glyph name="C" format="1">
  <advance width="668.93966"/>
  <unicode hex="0043"/>
  <outline>
    <contour>
      <point x="341" y="-10" type="curve" smooth="yes"/>
      <point x="510" y="-10"/>
      <point x="613" y="81"/>
      <point x="632" y="256" type="curve"/>
      <point x="481" y="256" type="line"/>
      <point x="481" y="223" type="line" smooth="yes"/>
      <point x="481" y="162"/>
      <point x="442" y="105"/>
      <point x="341" y="105" type="curve" smooth="yes"/>
      <point x="239" y="105"/>
      <point x="193" y="161"/>
      <point x="193" y="284" type="curve" smooth="yes"/>
      <point x="193" y="406" type="line" smooth="yes"/>
      <point x="193" y="530"/>
      <point x="239" y="585"/>
      <point x="341" y="585" type="curve" smooth="yes"/>
      <point x="442" y="585"/>
      <point x="481" y="529"/>
      <point x="481" y="472" type="curve" smooth="yes"/>
      <point x="481" y="442" type="line"/>
      <point x="631" y="442" type="line"/>
      <point x="609" y="612"/>
      <point x="507" y="700"/>
      <point x="341" y="700" type="curve" smooth="yes"/>
      <point x="147" y="700"/>
      <point x="38" y="582"/>
      <point x="38" y="345" type="curve" smooth="yes"/>
      <point x="38" y="108"/>
      <point x="147" y="-10"/>
    </contour>
    <contour>
      <point x="341" y="0" type="move" name="bottom"/>
    </contour>
    <contour>
      <point x="341" y="690" type="move" name="top"/>
    </contour>
  </outline>
</glyph>
<glyph name="G" format="1">
  <advance width="692.34483"/>
  <unicode hex="0047"/>
  <outline>
    <contour>
      <point x="302" y="-10" type="curve" smooth="yes"/>
      <point x="399" y="-10"/>
      <point x="459" y="37"/>
      <point x="479" y="131" type="curve"/>
      <point x="512" y="131" type="line"/>
      <point x="512" y="0" type="line"/>
      <point x="636" y="0" type="line"/>
      <point x="636" y="355" type="line"/>
      <point x="347" y="355" type="line"/>
      <point x="347" y="256" type="line"/>
      <point x="509" y="256" type="line"/>
      <point x="493" y="317" type="line"/>
      <point x="493" y="260" type="line" smooth="yes"/>
      <point x="493" y="161"/>
      <point x="446" y="102"/>
      <point x="344" y="102" type="curve" smooth="yes"/>
      <point x="240" y="102"/>
      <point x="194" y="159"/>
      <point x="194" y="284" type="curve" smooth="yes"/>
      <point x="194" y="406" type="line" smooth="yes"/>
      <point x="194" y="530"/>
      <point x="239" y="585"/>
      <point x="342" y="585" type="curve" smooth="yes"/>
      <point x="443" y="585"/>
      <point x="479" y="526"/>
      <point x="479" y="489" type="curve" smooth="yes"/>
      <point x="479" y="466" type="line"/>
      <point x="628" y="466" type="line"/>
      <point x="600" y="621"/>
      <point x="500" y="700"/>
      <point x="342" y="700" type="curve" smooth="yes"/>
      <point x="148" y="700"/>
      <point x="39" y="582"/>
      <point x="39" y="345" type="curve" smooth="yes"/>
      <point x="39" y="109"/>
      <point x="148" y="-10"/>
    </contour>
  </outline>
</glyph>
<glyph name="I" format="1">
  <advance width="358.42241"/>
  <unicode hex="0049"/>
  <outline>
    <contour>
      <point x="42" y="0" type="line"/>
      <point x="316" y="0" type="line"/>
      <point x="316" y="107" type="line"/>
      <point x="253" y="107" type="line"/>
      <point x="253" y="583" type="line"/>
      <point x="316" y="583" type="line"/>
      <point x="316" y="690" type="line"/>
      <point x="42" y="690" type="line"/>
      <point x="42" y="583" type="line"/>
      <point x="106" y="583" type="line"/>
      <point x="106" y="107" type="line"/>
      <point x="42" y="107" type="line"/>
    </contour>
    <contour>
      <point x="180" y="690" type="move" name="top"/>
    </contour>
  </outline>
</glyph>
<glyph name="J" format="1">
  <advance width="588.87069"/>
  <unicode hex="004A"/>
  <outline>
    <contour>
      <point x="274" y="-10" type="curve" smooth="yes"/>
      <point x="444" y="-10"/>
      <point x="527" y="79"/>
      <point x="527" y="271" type="curve" smooth="yes"/>
      <point x="527" y="690" type="line"/>
      <point x="182" y="690" type="line"/>
      <point x="182" y="583" type="line"/>
      <point x="380" y="583" type="line"/>
      <point x="380" y="237" type="line" smooth="yes"/>
      <point x="380" y="144"/>
      <point x="347" y="105"/>
      <point x="274" y="105" type="curve" smooth="yes"/>
      <point x="200" y="105"/>
      <point x="168" y="144"/>
      <point x="168" y="236" type="curve" smooth="yes"/>
      <point x="168" y="296" type="line"/>
      <point x="21" y="296" type="line"/>
      <point x="21" y="269" type="line" smooth="yes"/>
      <point x="21" y="79"/>
      <point x="103" y="-10"/>
    </contour>
    <contour>
      <point x="366" y="690" type="move" name="top"/>
    </contour>
  </outline>
</glyph>
<glyph name="M" format="1">
  <advance width="891.18103"/>
  <unicode hex="004D"/>
  <outline>
    <contour>
      <point x="69" y="0" type="line"/>
      <point x="211" y="0" type="line"/>
      <point x="211" y="568" type="line"/>
      <point x="244" y="568" type="line"/>
      <point x="377" y="0" type="line"/>
      <point x="510" y="0" type="line"/>
      <point x="643" y="568" type="line"/>
      <point x="676" y="568" type="line"/>
      <point x="676" y="0" type="line"/>
      <point x="823" y="0" type="line"/>
      <point x="823" y="690" type="line"/>
      <point x="561" y="690" type="line"/>
      <point x="462" y="263" type="line"/>
      <point x="429" y="263" type="line"/>
      <point x="330" y="690" type="line"/>
      <point x="69" y="690" type="line"/>
    </contour>
  </outline>
</glyph>
<glyph name="N" format="1">
  <advance width="685.08621"/>
  <unicode hex="004E"/>
  <outline>
    <contour>
      <point x="77" y="0" type="line"/>
      <point x="220" y="0" type="line"/>
      <point x="220" y="347" type="line" smooth="yes"/>
      <point x="220" y="378"/>
      <point x="217" y="410"/>
      <point x="210" y="473" type="curve"/>
      <point x="242" y="473" type="line"/>
      <point x="479" y="0" type="line"/>
      <point x="617" y="0" type="line"/>
      <point x="617" y="690" type="line"/>
      <point x="474" y="690" type="line"/>
      <point x="474" y="437" type="line" smooth="yes"/>
      <point x="474" y="406"/>
      <point x="477" y="374"/>
      <point x="484" y="311" type="curve"/>
      <point x="451" y="311" type="line"/>
      <point x="253" y="690" type="line"/>
      <point x="14" y="690" type="line"/>
      <point x="14" y="583" type="line"/>
      <point x="77" y="583" type="line"/>
    </contour>
    <contour>
      <point x="347" y="690" type="move" name="top"/>
    </contour>
  </outline>
</glyph>
<glyph name="O" format="1">
  <advance width="691.06034"/>
  <unicode hex="004F"/>
  <outline>
    <contour>
      <point x="346" y="-10" type="curve" smooth="yes"/>
      <point x="543" y="-10"/>
      <point x="653" y="108"/>
      <point x="653" y="345" type="curve" smooth="yes"/>
      <point x="653" y="582"/>
      <point x="543" y="700"/>
      <point x="346" y="700" type="curve" smooth="yes"/>
      <point x="149" y="700"/>
      <point x="38" y="582"/>
      <point x="38" y="345" type="curve" smooth="yes"/>
      <point x="38" y="108"/>
      <point x="149" y="-10"/>
    </contour>
    <contour>
      <point x="346" y="105" type="curve" smooth="yes"/>
      <point x="240" y="105"/>
      <point x="193" y="161"/>
      <point x="193" y="285" type="curve" smooth="yes"/>
      <point x="193" y="405" type="line" smooth="yes"/>
      <point x="193" y="529"/>
      <point x="240" y="585"/>
      <point x="346" y="585" type="curve" smooth="yes"/>
      <point x="451" y="585"/>
      <point x="498" y="529"/>
      <point x="498" y="405" type="curve" smooth="yes"/>
      <point x="498" y="285" type="line" smooth="yes"/>
      <point x="498" y="161"/>
      <point x="451" y="105"/>
    </contour>
    <contour>
      <point x="347" y="690" type="move" name="top"/>
    </contour>
  </outline>
</glyph>
<glyph name="P" format="1">
  <advance width="613.37931"/>
  <unicode hex="0050"/>
  <outline>
    <contour>
      <point x="76" y="0" type="line"/>
      <point x="223" y="0" type="line"/>
      <point x="223" y="275" type="line"/>
      <point x="374" y="275" type="line" smooth="yes"/>
      <point x="517" y="275"/>
      <point x="592" y="344"/>
      <point x="592" y="479" type="curve" smooth="yes"/>
      <point x="592" y="620"/>
      <point x="516" y="690"/>
      <point x="371" y="690" type="curve" smooth="yes"/>
      <point x="14" y="690" type="line"/>
      <point x="14" y="583" type="line"/>
      <point x="76" y="583" type="line"/>
    </contour>
    <contour>
      <point x="361" y="374" type="curve" smooth="yes"/>
      <point x="223" y="374" type="line"/>
      <point x="223" y="583" type="line"/>
      <point x="361" y="583" type="line" smooth="yes"/>
      <point x="416" y="583"/>
      <point x="442" y="556"/>
      <point x="442" y="499" type="curve" smooth="yes"/>
      <point x="442" y="459" type="line" smooth="yes"/>
      <point x="442" y="402"/>
      <point x="416" y="374"/>
    </contour>
  </outline>
</glyph>
<glyph name="Q" format="1">
  <advance width="691.06034"/>
  <unicode hex="0051"/>
  <outline>
    <contour>
      <point x="362" y="-132" type="curve" smooth="yes"/>
      <point x="560" y="-132" type="line"/>
      <point x="560" y="-29" type="line"/>
      <point x="417" y="-29" type="line"/>
      <point x="417" y="11" type="line"/>
      <point x="567" y="27"/>
      <point x="653" y="141"/>
      <point x="653" y="350" type="curve" smooth="yes"/>
      <point x="653" y="582"/>
      <point x="543" y="700"/>
      <point x="346" y="700" type="curve" smooth="yes"/>
      <point x="149" y="700"/>
      <point x="38" y="582"/>
      <point x="38" y="350" type="curve" smooth="yes"/>
      <point x="38" y="112"/>
      <point x="149" y="-2"/>
      <point x="346" y="-2" type="curve"/>
      <point x="274" y="58" type="line"/>
      <point x="274" y="-43" type="line" smooth="yes"/>
      <point x="274" y="-101"/>
      <point x="305" y="-132"/>
    </contour>
    <contour>
      <point x="346" y="111" type="curve" smooth="yes"/>
      <point x="240" y="111"/>
      <point x="193" y="168"/>
      <point x="193" y="289" type="curve" smooth="yes"/>
      <point x="193" y="408" type="line" smooth="yes"/>
      <point x="193" y="529"/>
      <point x="240" y="585"/>
      <point x="346" y="585" type="curve" smooth="yes"/>
      <point x="451" y="585"/>
      <point x="498" y="529"/>
      <point x="498" y="408" type="curve" smooth="yes"/>
      <point x="498" y="289" type="line" smooth="yes"/>
      <point x="498" y="168"/>
      <point x="451" y="111"/>
    </contour>
    <contour>
      <point x="346" y="690" type="move" name="top"/>
    </contour>
  </outline>
</glyph>
<glyph name="S" format="1">
  <advance width="620.84483"/>
  <unicode hex="0053"/>
  <outline>
    <contour>
      <point x="312" y="-10" type="curve" smooth="yes"/>
      <point x="488" y="-10"/>
      <point x="583" y="63"/>
      <point x="583" y="199" type="curve" smooth="yes"/>
      <point x="583" y="305"/>
      <point x="529" y="361"/>
      <point x="406" y="391" type="curve" smooth="yes"/>
      <point x="268" y="422" type="line" smooth="yes"/>
      <point x="210" y="436"/>
      <point x="188" y="456"/>
      <point x="188" y="493" type="curve" smooth="yes"/>
      <point x="188" y="509" type="line" smooth="yes"/>
      <point x="188" y="559"/>
      <point x="230" y="585"/>
      <point x="309" y="585" type="curve" smooth="yes"/>
      <point x="398" y="585"/>
      <point x="437" y="547"/>
      <point x="437" y="476" type="curve" smooth="yes"/>
      <point x="437" y="448" type="line"/>
      <point x="584" y="448" type="line"/>
      <point x="568" y="625"/>
      <point x="484" y="700"/>
      <point x="309" y="700" type="curve" smooth="yes"/>
      <point x="135" y="700"/>
      <point x="41" y="627"/>
      <point x="41" y="491" type="curve" smooth="yes"/>
      <point x="41" y="386"/>
      <point x="93" y="329"/>
      <point x="217" y="299" type="curve" smooth="yes"/>
      <point x="354" y="268" type="line" smooth="yes"/>
      <point x="413" y="254"/>
      <point x="436" y="233"/>
      <point x="436" y="197" type="curve" smooth="yes"/>
      <point x="436" y="181" type="line" smooth="yes"/>
      <point x="436" y="132"/>
      <point x="392" y="105"/>
      <point x="312" y="105" type="curve" smooth="yes"/>
      <point x="221" y="105"/>
      <point x="182" y="143"/>
      <point x="182" y="214" type="curve" smooth="yes"/>
      <point x="182" y="242" type="line"/>
      <point x="35" y="242" type="line"/>
      <point x="50" y="65"/>
      <point x="135" y="-10"/>
    </contour>
    <contour>
      <point x="305" y="690" type="move" name="top"/>
    </contour>
  </outline>
</glyph>
<glyph name="X" format="1">
  <advance width="665.08621"/>
  <unicode hex="0058"/>
  <outline>
    <contour>
      <point x="30" y="0" type="line"/>
      <point x="204" y="0" type="line"/>
      <point x="313" y="288" type="line"/>
      <point x="346" y="288" type="line"/>
      <point x="455" y="0" type="line"/>
      <point x="636" y="0" type="line"/>
      <point x="636" y="105" type="line"/>
      <point x="572" y="105" type="line"/>
      <point x="452" y="411" type="line"/>
      <point x="451" y="328" type="line"/>
      <point x="566" y="585" type="line"/>
      <point x="629" y="585" type="line"/>
      <point x="629" y="690" type="line"/>
      <point x="454" y="690" type="line"/>
      <point x="352" y="420" type="line"/>
      <point x="320" y="420" type="line"/>
      <point x="217" y="690" type="line"/>
      <point x="36" y="690" type="line"/>
      <point x="36" y="585" type="line"/>
      <point x="99" y="585" type="line"/>
      <point x="214" y="328" type="line"/>
      <point x="213" y="411" type="line"/>
      <point x="93" y="105" type="line"/>
      <point x="30" y="105" type="line"/>
    </contour>
  </outline>
</glyph>
<glyph name="Y" format="1">
  <advance width="614.25"/>
  <unicode hex="0059"/>
  <outline>
    <contour>
      <point x="169" y="0" type="line"/>
      <point x="445" y="0" type="line"/>
      <point x="445" y="107" type="line"/>
      <point x="380" y="107" type="line"/>
      <point x="380" y="260" type="line"/>
      <point x="609" y="690" type="line"/>
      <point x="460" y="690" type="line"/>
      <point x="327" y="425" type="line"/>
      <point x="294" y="425" type="line"/>
      <point x="161" y="690" type="line"/>
      <point x="6" y="690" type="line"/>
      <point x="234" y="260" type="line"/>
      <point x="234" y="107" type="line"/>
      <point x="169" y="107" type="line"/>
    </contour>
    <contour>
      <point x="311" y="690" type="move" name="top"/>
    </contour>
  </outline>
</glyph>
<glyph name="bracketleft" format="1">
  <advance width="329.91379"/>
  <unicode hex="005B"/>
  <outline>
    <contour>
      <point x="69" y="-92" type="line"/>
      <point x="301" y="-92" type="line"/>
      <point x="301" y="8" type="line"/>
      <point x="200" y="8" type="line"/>
      <point x="200" y="682" type="line"/>
      <point x="301" y="682" type="line"/>
      <point x="301" y="782" type="line"/>
      <point x="69" y="782" type="line"/>
    </contour>
  </outline>
</glyph>
<glyph name="bracketright" format="1">
  <advance width="329.91379"/>
  <unicode hex="005D"/>
  <outline>
    <contour>
      <point x="261" y="782" type="line"/>
      <point x="29" y="782" type="line"/>
      <point x="29" y="682" type="line"/>
      <point x="130" y="682" type="line"/>
      <point x="130" y="8" type="line"/>
      <point x="29" y="8" type="line"/>
      <point x="29" y="-92" type="line"/>
      <point x="261" y="-92" type="line"/>
    </contour>
  </outline>
</glyph>
<glyph name="a" format="1">
  <advance width="553.22414"/>
  <unicode hex="0061"/>
  <outline>
    <contour>
      <point x="191" y="-10" type="curve" smooth="yes"/>
      <point x="272" y="-10"/>
      <point x="317" y="26"/>
      <point x="335" y="103" type="curve"/>
      <point x="367" y="103" type="line"/>
      <point x="367" y="88" type="line" smooth="yes"/>
      <point x="367" y="31"/>
      <point x="398" y="0"/>
      <point x="455" y="0" type="curve" smooth="yes"/>
      <point x="546" y="0" type="line"/>
      <point x="546" y="103" type="line"/>
      <point x="491" y="103" type="line"/>
      <point x="491" y="343" type="line" smooth="yes"/>
      <point x="491" y="474"/>
      <point x="414" y="544"/>
      <point x="269" y="544" type="curve" smooth="yes"/>
      <point x="136" y="544"/>
      <point x="58" y="485"/>
      <point x="39" y="362" type="curve"/>
      <point x="184" y="362" type="line"/>
      <point x="184" y="372" type="line"/>
      <point x="184" y="403"/>
      <point x="208" y="433"/>
      <point x="266" y="433" type="curve" smooth="yes"/>
      <point x="322" y="433"/>
      <point x="348" y="406"/>
      <point x="348" y="342" type="curve" smooth="yes"/>
      <point x="348" y="261" type="line"/>
      <point x="348" y="245" type="line"/>
      <point x="348" y="173" type="line" smooth="yes"/>
      <point x="348" y="122"/>
      <point x="316" y="97"/>
      <point x="255" y="97" type="curve" smooth="yes"/>
      <point x="205" y="97"/>
      <point x="175" y="116"/>
      <point x="175" y="151" type="curve" smooth="yes"/>
      <point x="175" y="163" type="line" smooth="yes"/>
      <point x="175" y="199"/>
      <point x="199" y="217"/>
      <point x="258" y="223" type="curve" smooth="yes"/>
      <point x="348" y="232" type="line"/>
      <point x="348" y="322" type="line"/>
      <point x="215" y="309" type="line" smooth="yes"/>
      <point x="91" y="296"/>
      <point x="29" y="240"/>
      <point x="29" y="143" type="curve" smooth="yes"/>
      <point x="29" y="47"/>
      <point x="90" y="-10"/>
    </contour>
    <contour>
      <point x="546" y="0" type="move" name="ogonek"/>
    </contour>
    <contour>
      <point x="272" y="534" type="move" name="top"/>
    </contour>
  </outline>
</glyph>
<glyph name="c" format="1">
  <advance width="562.24138"/>
  <unicode hex="0063"/>
  <outline>
    <contour>
      <point x="287" y="-10" type="curve" smooth="yes"/>
      <point x="425" y="-10"/>
      <point x="511" y="61"/>
      <point x="529" y="194" type="curve"/>
      <point x="383" y="194" type="line"/>
      <point x="383" y="178" type="line"/>
      <point x="383" y="143"/>
      <point x="357" y="101"/>
      <point x="287" y="101" type="curve" smooth="yes"/>
      <point x="217" y="101"/>
      <point x="185" y="140"/>
      <point x="185" y="227" type="curve" smooth="yes"/>
      <point x="185" y="307" type="line" smooth="yes"/>
      <point x="185" y="394"/>
      <point x="217" y="433"/>
      <point x="287" y="433" type="curve" smooth="yes"/>
      <point x="357" y="433"/>
      <point x="383" y="391"/>
      <point x="383" y="362" type="curve" smooth="yes"/>
      <point x="383" y="348" type="line"/>
      <point x="528" y="348" type="line"/>
      <point x="508" y="476"/>
      <point x="422" y="544"/>
      <point x="287" y="544" type="curve" smooth="yes"/>
      <point x="127" y="544"/>
      <point x="34" y="446"/>
      <point x="34" y="267" type="curve" smooth="yes"/>
      <point x="34" y="88"/>
      <point x="127" y="-10"/>
    </contour>
    <contour>
      <point x="287" y="0" type="move" name="bottom"/>
    </contour>
    <contour>
      <point x="287" y="534" type="move" name="top"/>
    </contour>
  </outline>
</glyph>
<glyph name="d" format="1">
  <advance width="605.7069"/>
  <unicode hex="0064"/>
  <outline>
    <contour>
      <point x="233" y="-10" type="curve" smooth="yes"/>
      <point x="309" y="-10"/>
      <point x="360" y="31"/>
      <point x="379" y="108" type="curve"/>
      <point x="411" y="108" type="line"/>
      <point x="411" y="89" type="line" smooth="yes"/>
      <point x="411" y="31"/>
      <point x="442" y="0"/>
      <point x="499" y="0" type="curve" smooth="yes"/>
      <point x="590" y="0" type="line"/>
      <point x="590" y="103" type="line"/>
      <point x="535" y="103" type="line"/>
      <point x="535" y="690" type="line"/>
      <point x="335" y="690" type="line"/>
      <point x="335" y="587" type="line"/>
      <point x="392" y="587" type="line"/>
      <point x="392" y="562" type="line" smooth="yes"/>
      <point x="392" y="531"/>
      <point x="395" y="499"/>
      <point x="402" y="436" type="curve"/>
      <point x="370" y="436" type="line"/>
      <point x="353" y="508"/>
      <point x="307" y="544"/>
      <point x="233" y="544" type="curve" smooth="yes"/>
      <point x="112" y="544"/>
      <point x="35" y="440"/>
      <point x="35" y="267" type="curve" smooth="yes"/>
      <point x="35" y="94"/>
      <point x="114" y="-10"/>
    </contour>
    <contour>
      <point x="289" y="101" type="curve" smooth="yes"/>
      <point x="217" y="101"/>
      <point x="185" y="140"/>
      <point x="185" y="228" type="curve" smooth="yes"/>
      <point x="185" y="306" type="line" smooth="yes"/>
      <point x="185" y="394"/>
      <point x="217" y="433"/>
      <point x="289" y="433" type="curve" smooth="yes"/>
      <point x="360" y="433"/>
      <point x="392" y="394"/>
      <point x="392" y="306" type="curve" smooth="yes"/>
      <point x="392" y="228" type="line" smooth="yes"/>
      <point x="392" y="140"/>
      <point x="360" y="101"/>
    </contour>
  </outline>
</glyph>
<glyph name="f" format="1">
  <advance width="376.66379"/>
  <unicode hex="0066"/>
  <outline>
    <contour>
      <point x="103" y="601" type="curve" smooth="yes"/>
      <point x="103" y="0" type="line"/>
      <point x="246" y="0" type="line"/>
      <point x="246" y="587" type="line"/>
      <point x="354" y="587" type="line"/>
      <point x="354" y="690" type="line"/>
      <point x="191" y="690" type="line" smooth="yes"/>
      <point x="134" y="690"/>
      <point x="103" y="659"/>
    </contour>
    <contour>
      <point x="37" y="0" type="line"/>
      <point x="339" y="0" type="line"/>
      <point x="339" y="103" type="line"/>
      <point x="37" y="103" type="line"/>
    </contour>
    <contour>
      <point x="30" y="431" type="line"/>
      <point x="354" y="431" type="line"/>
      <point x="354" y="534" type="line"/>
      <point x="30" y="534" type="line"/>
    </contour>
  </outline>
</glyph>
<glyph name="h" format="1">
  <advance width="589.24138"/>
  <unicode hex="0068"/>
  <outline>
    <contour>
      <point x="61" y="0" type="line"/>
      <point x="204" y="0" type="line"/>
      <point x="204" y="328" type="line" smooth="yes"/>
      <point x="204" y="401"/>
      <point x="231" y="433"/>
      <point x="290" y="433" type="curve" smooth="yes"/>
      <point x="349" y="433"/>
      <point x="377" y="401"/>
      <point x="377" y="328" type="curve" smooth="yes"/>
      <point x="377" y="0" type="line"/>
      <point x="574" y="0" type="line"/>
      <point x="574" y="103" type="line"/>
      <point x="519" y="103" type="line"/>
      <point x="519" y="355" type="line" smooth="yes"/>
      <point x="519" y="479"/>
      <point x="463" y="544"/>
      <point x="358" y="544" type="curve" smooth="yes"/>
      <point x="284" y="544"/>
      <point x="243" y="511"/>
      <point x="226" y="437" type="curve"/>
      <point x="194" y="437" type="line"/>
      <point x="201" y="500"/>
      <point x="204" y="532"/>
      <point x="204" y="563" type="curve" smooth="yes"/>
      <point x="204" y="690" type="line"/>
      <point x="6" y="690" type="line"/>
      <point x="6" y="587" type="line"/>
      <point x="61" y="587" type="line"/>
    </contour>
  </outline>
</glyph>
<glyph name="m" format="1">
  <advance width="889.48276"/>
  <unicode hex="006D"/>
  <outline>
    <contour>
      <point x="376" y="335" type="curve" smooth="yes"/>
      <point x="376" y="0" type="line"/>
      <point x="519" y="0" type="line"/>
      <point x="519" y="335" type="line" smooth="yes"/>
      <point x="519" y="402"/>
      <point x="545" y="433"/>
      <point x="598" y="433" type="curve" smooth="yes"/>
      <point x="651" y="433"/>
      <point x="677" y="402"/>
      <point x="677" y="335" type="curve" smooth="yes"/>
      <point x="677" y="0" type="line"/>
      <point x="875" y="0" type="line"/>
      <point x="875" y="103" type="line"/>
      <point x="820" y="103" type="line"/>
      <point x="820" y="355" type="line" smooth="yes"/>
      <point x="820" y="479"/>
      <point x="766" y="544"/>
      <point x="666" y="544" type="curve" smooth="yes"/>
      <point x="591" y="544"/>
      <point x="548" y="507"/>
      <point x="532" y="427" type="curve"/>
      <point x="501" y="427" type="line"/>
      <point x="485" y="505"/>
      <point x="440" y="544"/>
      <point x="365" y="544" type="curve" smooth="yes"/>
      <point x="291" y="544"/>
      <point x="248" y="507"/>
      <point x="232" y="427" type="curve"/>
      <point x="199" y="427" type="line"/>
      <point x="199" y="534" type="line"/>
      <point x="20" y="534" type="line"/>
      <point x="20" y="431" type="line"/>
      <point x="75" y="431" type="line"/>
      <point x="75" y="0" type="line"/>
      <point x="218" y="0" type="line"/>
      <point x="218" y="335" type="line" smooth="yes"/>
      <point x="218" y="402"/>
      <point x="244" y="433"/>
      <point x="297" y="433" type="curve" smooth="yes"/>
      <point x="350" y="433"/>
      <point x="376" y="402"/>
    </contour>
  </outline>
</glyph>
<glyph name="n" format="1">
  <advance width="602.75"/>
  <unicode hex="006E"/>
  <outline>
    <contour>
      <point x="75" y="0" type="line"/>
      <point x="218" y="0" type="line"/>
      <point x="218" y="328" type="line" smooth="yes"/>
      <point x="218" y="401"/>
      <point x="245" y="433"/>
      <point x="304" y="433" type="curve" smooth="yes"/>
      <point x="363" y="433"/>
      <point x="390" y="401"/>
      <point x="390" y="328" type="curve" smooth="yes"/>
      <point x="390" y="0" type="line"/>
      <point x="589" y="0" type="line"/>
      <point x="589" y="103" type="line"/>
      <point x="533" y="103" type="line"/>
      <point x="533" y="355" type="line" smooth="yes"/>
      <point x="533" y="479"/>
      <point x="477" y="544"/>
      <point x="372" y="544" type="curve" smooth="yes"/>
      <point x="295" y="544"/>
      <point x="250" y="507"/>
      <point x="232" y="427" type="curve"/>
      <point x="199" y="427" type="line"/>
      <point x="199" y="534" type="line"/>
      <point x="20" y="534" type="line"/>
      <point x="20" y="431" type="line"/>
      <point x="75" y="431" type="line"/>
    </contour>
    <contour>
      <point x="306" y="534" type="move" name="top"/>
    </contour>
  </outline>
</glyph>
<glyph name="o" format="1">
  <advance width="583.13793"/>
  <unicode hex="006F"/>
  <outline>
    <contour>
      <point x="292" y="-10" type="curve" smooth="yes"/>
      <point x="455" y="-10"/>
      <point x="549" y="88"/>
      <point x="549" y="267" type="curve" smooth="yes"/>
      <point x="549" y="446"/>
      <point x="455" y="544"/>
      <point x="292" y="544" type="curve" smooth="yes"/>
      <point x="128" y="544"/>
      <point x="34" y="446"/>
      <point x="34" y="267" type="curve" smooth="yes"/>
      <point x="34" y="88"/>
      <point x="128" y="-10"/>
    </contour>
    <contour>
      <point x="292" y="101" type="curve" smooth="yes"/>
      <point x="218" y="101"/>
      <point x="185" y="140"/>
      <point x="185" y="228" type="curve" smooth="yes"/>
      <point x="185" y="306" type="line" smooth="yes"/>
      <point x="185" y="394"/>
      <point x="218" y="433"/>
      <point x="292" y="433" type="curve" smooth="yes"/>
      <point x="365" y="433"/>
      <point x="398" y="394"/>
      <point x="398" y="306" type="curve" smooth="yes"/>
      <point x="398" y="228" type="line" smooth="yes"/>
      <point x="398" y="140"/>
      <point x="365" y="101"/>
    </contour>
    <contour>
      <point x="292" y="534" type="move" name="top"/>
    </contour>
  </outline>
</glyph>
<glyph name="p" format="1">
  <advance width="609.93103"/>
  <unicode hex="0070"/>
  <outline>
    <contour>
      <point x="75" y="-132" type="line"/>
      <point x="218" y="-132" type="line"/>
      <point x="218" y="-24" type="line" smooth="yes"/>
      <point x="218" y="3"/>
      <point x="215" y="35"/>
      <point x="208" y="98" type="curve"/>
      <point x="240" y="98" type="line"/>
      <point x="257" y="26"/>
      <point x="303" y="-10"/>
      <point x="376" y="-10" type="curve" smooth="yes"/>
      <point x="498" y="-10"/>
      <point x="576" y="94"/>
      <point x="576" y="267" type="curve" smooth="yes"/>
      <point x="576" y="440"/>
      <point x="496" y="544"/>
      <point x="376" y="544" type="curve" smooth="yes"/>
      <point x="300" y="544"/>
      <point x="250" y="503"/>
      <point x="231" y="426" type="curve"/>
      <point x="199" y="426" type="line"/>
      <point x="199" y="534" type="line"/>
      <point x="19" y="534" type="line"/>
      <point x="19" y="431" type="line"/>
      <point x="75" y="431" type="line"/>
    </contour>
    <contour>
      <point x="321" y="101" type="curve" smooth="yes"/>
      <point x="250" y="101"/>
      <point x="218" y="140"/>
      <point x="218" y="228" type="curve" smooth="yes"/>
      <point x="218" y="306" type="line" smooth="yes"/>
      <point x="218" y="394"/>
      <point x="250" y="433"/>
      <point x="321" y="433" type="curve" smooth="yes"/>
      <point x="393" y="433"/>
      <point x="425" y="394"/>
      <point x="425" y="306" type="curve" smooth="yes"/>
      <point x="425" y="228" type="line" smooth="yes"/>
      <point x="425" y="140"/>
      <point x="393" y="101"/>
    </contour>
  </outline>
</glyph>
<glyph name="r" format="1">
  <advance width="446.02586"/>
  <unicode hex="0072"/>
  <outline>
    <contour>
      <point x="75" y="0" type="line"/>
      <point x="218" y="0" type="line"/>
      <point x="218" y="326" type="line" smooth="yes"/>
      <point x="218" y="398"/>
      <point x="245" y="431"/>
      <point x="304" y="431" type="curve" smooth="yes"/>
      <point x="422" y="431" type="line"/>
      <point x="422" y="542" type="line"/>
      <point x="365" y="542" type="line" smooth="yes"/>
      <point x="291" y="542"/>
      <point x="250" y="506"/>
      <point x="232" y="427" type="curve"/>
      <point x="199" y="427" type="line"/>
      <point x="199" y="534" type="line"/>
      <point x="20" y="534" type="line"/>
      <point x="20" y="431" type="line"/>
      <point x="75" y="431" type="line"/>
    </contour>
  </outline>
</glyph>
<glyph name="s" format="1">
  <advance width="531.61207"/>
  <unicode hex="0073"/>
  <outline>
    <contour>
      <point x="266" y="-10" type="curve" smooth="yes"/>
      <point x="417" y="-10"/>
      <point x="499" y="51"/>
      <point x="499" y="161" type="curve" smooth="yes"/>
      <point x="499" y="243"/>
      <point x="452" y="288"/>
      <point x="346" y="312" type="curve" smooth="yes"/>
      <point x="236" y="335" type="line" smooth="yes"/>
      <point x="195" y="346"/>
      <point x="178" y="359"/>
      <point x="178" y="386" type="curve" smooth="yes"/>
      <point x="178" y="420"/>
      <point x="208" y="437"/>
      <point x="264" y="437" type="curve" smooth="yes"/>
      <point x="331" y="437"/>
      <point x="356" y="409"/>
      <point x="356" y="373" type="curve" smooth="yes"/>
      <point x="356" y="362" type="line"/>
      <point x="497" y="362" type="line"/>
      <point x="478" y="489"/>
      <point x="406" y="544"/>
      <point x="264" y="544" type="curve" smooth="yes"/>
      <point x="116" y="544"/>
      <point x="35" y="483"/>
      <point x="35" y="374" type="curve" smooth="yes"/>
      <point x="35" y="292"/>
      <point x="80" y="246"/>
      <point x="185" y="222" type="curve" smooth="yes"/>
      <point x="295" y="199" type="line" smooth="yes"/>
      <point x="338" y="188"/>
      <point x="355" y="175"/>
      <point x="355" y="148" type="curve" smooth="yes"/>
      <point x="355" y="114"/>
      <point x="324" y="97"/>
      <point x="266" y="97" type="curve" smooth="yes"/>
      <point x="198" y="97"/>
      <point x="172" y="125"/>
      <point x="172" y="161" type="curve" smooth="yes"/>
      <point x="172" y="172" type="line"/>
      <point x="30" y="172" type="line"/>
      <point x="49" y="45"/>
      <point x="123" y="-10"/>
    </contour>
    <contour>
      <point x="260" y="534" type="move" name="top"/>
    </contour>
  </outline>
</glyph>
<glyph name="v" format="1">
  <advance width="536.06034"/>
  <unicode hex="0076"/>
  <outline>
    <contour>
      <point x="139" y="0" type="line"/>
      <point x="396" y="0" type="line"/>
      <point x="523" y="534" type="line"/>
      <point x="382" y="534" type="line"/>
      <point x="287" y="118" type="line"/>
      <point x="255" y="118" type="line"/>
      <point x="160" y="534" type="line"/>
      <point x="12" y="534" type="line"/>
    </contour>
  </outline>
</glyph>
<glyph name="w" format="1">
  <advance width="863.36207"/>
  <unicode hex="0077"/>
  <outline>
    <contour>
      <point x="127" y="0" type="line"/>
      <point x="360" y="0" type="line"/>
      <point x="415" y="297" type="line"/>
      <point x="448" y="297" type="line"/>
      <point x="503" y="0" type="line"/>
      <point x="736" y="0" type="line"/>
      <point x="848" y="534" type="line"/>
      <point x="708" y="534" type="line"/>
      <point x="627" y="118" type="line"/>
      <point x="595" y="118" type="line"/>
      <point x="511" y="534" type="line"/>
      <point x="358" y="534" type="line"/>
      <point x="275" y="118" type="line"/>
      <point x="242" y="118" type="line"/>
      <point x="161" y="534" type="line"/>
      <point x="15" y="534" type="line"/>
    </contour>
  </outline>
</glyph>
<glyph name="x" format="1">
  <advance width="582.19828"/>
  <unicode hex="0078"/>
  <outline>
    <contour>
      <point x="28" y="0" type="line"/>
      <point x="191" y="0" type="line"/>
      <point x="272" y="212" type="line"/>
      <point x="304" y="212" type="line"/>
      <point x="385" y="0" type="line"/>
      <point x="553" y="0" type="line"/>
      <point x="553" y="103" type="line"/>
      <point x="499" y="103" type="line"/>
      <point x="406" y="333" type="line"/>
      <point x="405" y="250" type="line"/>
      <point x="492" y="431" type="line"/>
      <point x="547" y="431" type="line"/>
      <point x="547" y="534" type="line"/>
      <point x="385" y="534" type="line"/>
      <point x="311" y="340" type="line"/>
      <point x="278" y="340" type="line"/>
      <point x="204" y="534" type="line"/>
      <point x="35" y="534" type="line"/>
      <point x="35" y="431" type="line"/>
      <point x="91" y="431" type="line"/>
      <point x="177" y="250" type="line"/>
      <point x="177" y="333" type="line"/>
      <point x="84" y="103" type="line"/>
      <point x="28" y="103" type="line"/>
    </contour>
  </outline>
</glyph>
<glyph name="asciitilde" format="1">
  <advance width="474.58621"/>
  <unicode hex="007E"/>
  <outline>
    <contour>
      <point x="24" y="262" type="curve"/>
      <point x="128" y="262" type="line"/>
      <point x="128" y="292"/>
      <point x="141" y="308"/>
      <point x="165" y="308" type="curve" smooth="yes"/>
      <point x="206" y="308"/>
      <point x="259" y="262"/>
      <point x="337" y="262" type="curve" smooth="yes"/>
      <point x="414" y="262"/>
      <point x="450" y="309"/>
      <point x="450" y="412" type="curve"/>
      <point x="346" y="412" type="line"/>
      <point x="346" y="382"/>
      <point x="333" y="366"/>
      <point x="309" y="366" type="curve" smooth="yes"/>
      <point x="268" y="366"/>
      <point x="215" y="412"/>
      <point x="138" y="412" type="curve" smooth="yes"/>
      <point x="60" y="412"/>
      <point x="24" y="365"/>
    </contour>
  </outline>
</glyph>
<glyph name="exclamdown" format="1">
  <advance width="261.53448"/>
  <unicode hex="00A1"/>
  <outline>
    <contour>
      <point x="173" y="343" type="line"/>
      <point x="88" y="343" type="line"/>
      <point x="54" y="-49" type="line"/>
      <point x="54" y="-156" type="line"/>
      <point x="208" y="-156" type="line"/>
      <point x="208" y="-49" type="line"/>
    </contour>
    <contour>
      <point x="207" y="534" type="line"/>
      <point x="55" y="534" type="line"/>
      <point x="55" y="387" type="line"/>
      <point x="207" y="387" type="line"/>
    </contour>
  </outline>
</glyph>
<glyph name="currency" format="1">
  <advance width="580.35345"/>
  <unicode hex="00A4"/>
  <outline>
    <contour>
      <point x="290" y="129" type="curve" smooth="yes"/>
      <point x="440" y="129"/>
      <point x="523" y="213"/>
      <point x="523" y="346" type="curve" smooth="yes"/>
      <point x="523" y="480"/>
      <point x="440" y="563"/>
      <point x="290" y="563" type="curve" smooth="yes"/>
      <point x="140" y="563"/>
      <point x="58" y="480"/>
      <point x="58" y="346" type="curve" smooth="yes"/>
      <point x="58" y="213"/>
      <point x="140" y="129"/>
    </contour>
    <contour>
      <point x="133" y="54" type="line"/>
      <point x="216" y="174" type="line"/>
      <point x="139" y="238" type="line"/>
      <point x="50" y="111" type="line"/>
    </contour>
    <contour>
      <point x="448" y="54" type="line"/>
      <point x="531" y="111" type="line"/>
      <point x="442" y="238" type="line"/>
      <point x="365" y="174" type="line"/>
    </contour>
    <contour>
      <point x="290" y="240" type="curve" smooth="yes"/>
      <point x="229" y="240"/>
      <point x="202" y="269"/>
      <point x="202" y="324" type="curve" smooth="yes"/>
      <point x="202" y="369" type="line" smooth="yes"/>
      <point x="202" y="423"/>
      <point x="229" y="453"/>
      <point x="290" y="453" type="curve" smooth="yes"/>
      <point x="352" y="453"/>
      <point x="378" y="423"/>
      <point x="378" y="369" type="curve" smooth="yes"/>
      <point x="378" y="324" type="line" smooth="yes"/>
      <point x="378" y="269"/>
      <point x="352" y="240"/>
    </contour>
    <contour>
      <point x="139" y="454" type="line"/>
      <point x="216" y="517" type="line"/>
      <point x="133" y="638" type="line"/>
      <point x="50" y="581" type="line"/>
    </contour>
    <contour>
      <point x="442" y="454" type="line"/>
      <point x="531" y="581" type="line"/>
      <point x="448" y="638" type="line"/>
      <point x="365" y="517" type="line"/>
    </contour>
  </outline>
</glyph>
<glyph name="yen" format="1">
  <advance width="616.12931"/>
  <unicode hex="00A5"/>
  <outline>
    <contour>
      <point x="235" y="0" type="line"/>
      <point x="381" y="0" type="line"/>
      <point x="381" y="260" type="line"/>
      <point x="610" y="690" type="line"/>
      <point x="461" y="690" type="line"/>
      <point x="327" y="425" type="line"/>
      <point x="295" y="425" type="line"/>
      <point x="161" y="690" type="line"/>
      <point x="7" y="690" type="line"/>
      <point x="235" y="260" type="line"/>
    </contour>
    <contour>
      <point x="83" y="143" type="line"/>
      <point x="534" y="143" type="line"/>
      <point x="534" y="230" type="line"/>
      <point x="83" y="230" type="line"/>
    </contour>
    <contour>
      <point x="83" y="268" type="line"/>
      <point x="534" y="268" type="line"/>
      <point x="534" y="355" type="line"/>
      <point x="83" y="355" type="line"/>
    </contour>
  </outline>
</glyph>
<glyph name="copyright" format="1">
  <advance width="817.67241"/>
  <unicode hex="00A9"/>
  <outline>
    <contour>
      <point x="409" y="-40" type="curve" smooth="yes"/>
      <point x="623" y="-40"/>
      <point x="767" y="110"/>
      <point x="767" y="345" type="curve" smooth="yes"/>
      <point x="767" y="580"/>
      <point x="623" y="730"/>
      <point x="409" y="730" type="curve" smooth="yes"/>
      <point x="194" y="730"/>
      <point x="51" y="580"/>
      <point x="51" y="345" type="curve" smooth="yes"/>
      <point x="51" y="110"/>
      <point x="194" y="-40"/>
    </contour>
    <contour>
      <point x="409" y="13" type="curve" smooth="yes"/>
      <point x="226" y="13"/>
      <point x="106" y="142"/>
      <point x="106" y="329" type="curve" smooth="yes"/>
      <point x="106" y="361" type="line" smooth="yes"/>
      <point x="106" y="548"/>
      <point x="226" y="677"/>
      <point x="409" y="677" type="curve" smooth="yes"/>
      <point x="592" y="677"/>
      <point x="712" y="548"/>
      <point x="712" y="361" type="curve" smooth="yes"/>
      <point x="712" y="329" type="line" smooth="yes"/>
      <point x="712" y="142"/>
      <point x="592" y="13"/>
    </contour>
    <contour>
      <point x="412" y="100" type="curve" smooth="yes"/>
      <point x="533" y="100"/>
      <point x="615" y="164"/>
      <point x="631" y="284" type="curve"/>
      <point x="495" y="284" type="line"/>
      <point x="495" y="269" type="line" smooth="yes"/>
      <point x="495" y="242"/>
      <point x="473" y="205"/>
      <point x="412" y="205" type="curve" smooth="yes"/>
      <point x="349" y="205"/>
      <point x="323" y="238"/>
      <point x="323" y="310" type="curve" smooth="yes"/>
      <point x="323" y="382" type="line" smooth="yes"/>
      <point x="323" y="453"/>
      <point x="349" y="486"/>
      <point x="412" y="486" type="curve" smooth="yes"/>
      <point x="473" y="486"/>
      <point x="495" y="450"/>
      <point x="495" y="427" type="curve"/>
      <point x="495" y="414" type="line"/>
      <point x="630" y="414" type="line"/>
      <point x="612" y="530"/>
      <point x="531" y="591"/>
      <point x="412" y="591" type="curve" smooth="yes"/>
      <point x="271" y="591"/>
      <point x="183" y="506"/>
      <point x="183" y="346" type="curve" smooth="yes"/>
      <point x="183" y="186"/>
      <point x="271" y="100"/>
    </contour>
  </outline>
</glyph>
<glyph name="guillemetleft" format="1">
  <advance width="529.12069"/>
  <unicode hex="00AB"/>
  <outline>
    <contour>
      <point x="365" y="82" type="line"/>
      <point x="491" y="82" type="line"/>
      <point x="360" y="274" type="line"/>
      <point x="360" y="294" type="line"/>
      <point x="491" y="486" type="line"/>
      <point x="365" y="486" type="line"/>
      <point x="235" y="310" type="line"/>
      <point x="235" y="258" type="line"/>
    </contour>
    <contour>
      <point x="168" y="82" type="line"/>
      <point x="294" y="82" type="line"/>
      <point x="163" y="274" type="line"/>
      <point x="163" y="294" type="line"/>
      <point x="294" y="486" type="line"/>
      <point x="168" y="486" type="line"/>
      <point x="38" y="310" type="line"/>
      <point x="38" y="258" type="line"/>
    </contour>
  </outline>
</glyph>
<glyph name="logicalnot" format="1">
  <advance width="474.58621"/>
  <unicode hex="00AC"/>
  <outline>
    <contour>
      <point x="338" y="154" type="line"/>
      <point x="448" y="154" type="line"/>
      <point x="448" y="388" type="line"/>
      <point x="23" y="388" type="line"/>
      <point x="23" y="286" type="line"/>
      <point x="408" y="286" type="line"/>
      <point x="338" y="347" type="line"/>
    </contour>
  </outline>
</glyph>
<glyph name="registered" format="1">
  <advance width="483.59483"/>
  <unicode hex="00AE"/>
  <outline>
    <contour>
      <point x="242" y="293" type="curve" smooth="yes"/>
      <point x="353" y="293"/>
      <point x="434" y="377"/>
      <point x="434" y="496" type="curve" smooth="yes"/>
      <point x="434" y="616"/>
      <point x="353" y="700"/>
      <point x="242" y="700" type="curve" smooth="yes"/>
      <point x="130" y="700"/>
      <point x="49" y="616"/>
      <point x="49" y="496" type="curve" smooth="yes"/>
      <point x="49" y="377"/>
      <point x="130" y="293"/>
    </contour>
    <contour>
      <point x="273" y="382" type="line"/>
      <point x="341" y="382" type="line"/>
      <point x="297" y="489" type="line"/>
      <point x="236" y="482" type="line"/>
    </contour>
    <contour>
      <point x="242" y="334" type="curve" smooth="yes"/>
      <point x="150" y="334"/>
      <point x="94" y="393"/>
      <point x="94" y="490" type="curve" smooth="yes"/>
      <point x="94" y="504" type="line" smooth="yes"/>
      <point x="94" y="601"/>
      <point x="150" y="659"/>
      <point x="242" y="659" type="curve" smooth="yes"/>
      <point x="334" y="659"/>
      <point x="390" y="601"/>
      <point x="390" y="504" type="curve" smooth="yes"/>
      <point x="390" y="490" type="line" smooth="yes"/>
      <point x="390" y="393"/>
      <point x="334" y="334"/>
    </contour>
    <contour>
      <point x="155" y="382" type="line"/>
      <point x="220" y="382" type="line"/>
      <point x="220" y="464" type="line"/>
      <point x="251" y="464" type="line" smooth="yes"/>
      <point x="305" y="464"/>
      <point x="336" y="489"/>
      <point x="336" y="535" type="curve" smooth="yes"/>
      <point x="336" y="583"/>
      <point x="304" y="611"/>
      <point x="248" y="611" type="curve" smooth="yes"/>
      <point x="155" y="611" type="line"/>
    </contour>
    <contour>
      <point x="247" y="506" type="curve" smooth="yes"/>
      <point x="219" y="506" type="line"/>
      <point x="219" y="565" type="line"/>
      <point x="247" y="565" type="line" smooth="yes"/>
      <point x="264" y="565"/>
      <point x="272" y="557"/>
      <point x="272" y="541" type="curve" smooth="yes"/>
      <point x="272" y="529" type="line" smooth="yes"/>
      <point x="272" y="515"/>
      <point x="264" y="506"/>
    </contour>
  </outline>
</glyph>
<glyph name="plusminus" format="1">
  <advance width="474.58621"/>
  <unicode hex="00B1"/>
  <outline>
    <contour>
      <point x="24" y="327" type="line"/>
      <point x="450" y="327" type="line"/>
      <point x="450" y="429" type="line"/>
      <point x="24" y="429" type="line"/>
    </contour>
    <contour>
      <point x="182" y="175" type="line"/>
      <point x="292" y="175" type="line"/>
      <point x="292" y="582" type="line"/>
      <point x="182" y="582" type="line"/>
    </contour>
    <contour>
      <point x="24" y="14" type="line"/>
      <point x="450" y="14" type="line"/>
      <point x="450" y="116" type="line"/>
      <point x="24" y="116" type="line"/>
    </contour>
  </outline>
</glyph>
<glyph name="twosuperior" format="1">
  <advance width="367.87069"/>
  <unicode hex="00B2"/>
  <note>
twosuperior
</note>
  <outline>
    <contour>
      <point x="29" y="446" type="curve" smooth="yes"/>
      <point x="29" y="368" type="line"/>
      <point x="334" y="368" type="line"/>
      <point x="334" y="474" type="line"/>
      <point x="249" y="474" type="line"/>
      <point x="249" y="439" type="line"/>
      <point x="82" y="439" type="line"/>
      <point x="133" y="395" type="line"/>
      <point x="133" y="446" type="line" smooth="yes"/>
      <point x="133" y="475"/>
      <point x="142" y="477"/>
      <point x="168" y="484" type="curve" smooth="yes"/>
      <point x="236" y="501" type="line" smooth="yes"/>
      <point x="312" y="519"/>
      <point x="339" y="548"/>
      <point x="339" y="597" type="curve" smooth="yes"/>
      <point x="339" y="599" type="line" smooth="yes"/>
      <point x="339" y="661"/>
      <point x="282" y="694"/>
      <point x="185" y="694" type="curve" smooth="yes"/>
      <point x="91" y="694"/>
      <point x="40" y="659"/>
      <point x="30" y="576" type="curve"/>
      <point x="132" y="576" type="line"/>
      <point x="132" y="583" type="line" smooth="yes"/>
      <point x="132" y="607"/>
      <point x="151" y="619"/>
      <point x="185" y="619" type="curve" smooth="yes"/>
      <point x="214" y="619"/>
      <point x="234" y="612"/>
      <point x="234" y="597" type="curve" smooth="yes"/>
      <point x="234" y="595" type="line" smooth="yes"/>
      <point x="234" y="577"/>
      <point x="226" y="570"/>
      <point x="200" y="564" type="curve" smooth="yes"/>
      <point x="132" y="548" type="line" smooth="yes"/>
      <point x="56" y="530"/>
      <point x="29" y="503"/>
    </contour>
  </outline>
</glyph>
<glyph name="threesuperior" format="1">
  <advance width="371.87069"/>
  <unicode hex="00B3"/>
  <note>
threesuperior
</note>
  <outline>
    <contour>
      <point x="186" y="363" type="curve" smooth="yes"/>
      <point x="284" y="363"/>
      <point x="343" y="398"/>
      <point x="343" y="458" type="curve" smooth="yes"/>
      <point x="343" y="497"/>
      <point x="317" y="521"/>
      <point x="265" y="522" type="curve"/>
      <point x="265" y="542" type="line"/>
      <point x="314" y="544"/>
      <point x="341" y="566"/>
      <point x="341" y="603" type="curve" smooth="yes"/>
      <point x="341" y="661"/>
      <point x="283" y="694"/>
      <point x="186" y="694" type="curve" smooth="yes"/>
      <point x="92" y="694"/>
      <point x="42" y="660"/>
      <point x="31" y="583" type="curve"/>
      <point x="135" y="583" type="line"/>
      <point x="135" y="589" type="line" smooth="yes"/>
      <point x="135" y="604"/>
      <point x="151" y="619"/>
      <point x="186" y="619" type="curve" smooth="yes"/>
      <point x="217" y="619"/>
      <point x="236" y="610"/>
      <point x="236" y="595" type="curve" smooth="yes"/>
      <point x="236" y="589" type="line" smooth="yes"/>
      <point x="236" y="574"/>
      <point x="221" y="565"/>
      <point x="195" y="565" type="curve" smooth="yes"/>
      <point x="139" y="565" type="line"/>
      <point x="139" y="500" type="line"/>
      <point x="194" y="500" type="line" smooth="yes"/>
      <point x="222" y="500"/>
      <point x="237" y="490"/>
      <point x="237" y="473" type="curve" smooth="yes"/>
      <point x="237" y="464" type="line" smooth="yes"/>
      <point x="237" y="448"/>
      <point x="218" y="439"/>
      <point x="186" y="439" type="curve" smooth="yes"/>
      <point x="151" y="439"/>
      <point x="132" y="453"/>
      <point x="132" y="468" type="curve" smooth="yes"/>
      <point x="132" y="475" type="line"/>
      <point x="30" y="475" type="line"/>
      <point x="41" y="397"/>
      <point x="91" y="363"/>
    </contour>
  </outline>
</glyph>
<glyph name="paragraph" format="1">
  <advance width="530.57759"/>
  <unicode hex="00B6"/>
  <outline>
    <contour>
      <point x="335" y="0" type="line"/>
      <point x="457" y="0" type="line"/>
      <point x="457" y="690" type="line"/>
      <point x="228" y="690" type="line" smooth="yes"/>
      <point x="97" y="690"/>
      <point x="25" y="621"/>
      <point x="25" y="493" type="curve" smooth="yes"/>
      <point x="25" y="380"/>
      <point x="90" y="316"/>
      <point x="211" y="316" type="curve" smooth="yes"/>
      <point x="256" y="316" type="line"/>
      <point x="256" y="589" type="line"/>
      <point x="335" y="589" type="line"/>
    </contour>
  </outline>
</glyph>
<glyph name="ordmasculine" format="1">
  <advance width="431.56034"/>
  <unicode hex="00BA"/>
  <note>
ordmasculine
</note>
  <outline>
    <contour>
      <point x="215" y="353" type="curve" smooth="yes"/>
      <point x="328" y="353"/>
      <point x="392" y="414"/>
      <point x="392" y="525" type="curve" smooth="yes"/>
      <point x="392" y="635"/>
      <point x="328" y="696"/>
      <point x="215" y="696" type="curve" smooth="yes"/>
      <point x="103" y="696"/>
      <point x="39" y="636"/>
      <point x="39" y="525" type="curve" smooth="yes"/>
      <point x="39" y="414"/>
      <point x="103" y="353"/>
    </contour>
    <contour>
      <point x="215" y="438" type="curve" smooth="yes"/>
      <point x="177" y="438"/>
      <point x="158" y="458"/>
      <point x="158" y="502" type="curve" smooth="yes"/>
      <point x="158" y="547" type="line" smooth="yes"/>
      <point x="158" y="591"/>
      <point x="177" y="612"/>
      <point x="215" y="612" type="curve" smooth="yes"/>
      <point x="254" y="612"/>
      <point x="273" y="591"/>
      <point x="273" y="547" type="curve" smooth="yes"/>
      <point x="273" y="502" type="line" smooth="yes"/>
      <point x="273" y="458"/>
      <point x="254" y="438"/>
    </contour>
    <contour>
      <point x="215" y="690" type="move" name="top"/>
    </contour>
  </outline>
</glyph>
<glyph name="guillemetright" format="1">
  <advance width="529.12069"/>
  <unicode hex="00BB"/>
  <outline>
    <contour>
      <point x="164" y="486" type="line"/>
      <point x="38" y="486" type="line"/>
      <point x="169" y="294" type="line"/>
      <point x="169" y="274" type="line"/>
      <point x="38" y="82" type="line"/>
      <point x="164" y="82" type="line"/>
      <point x="294" y="258" type="line"/>
      <point x="294" y="310" type="line"/>
    </contour>
    <contour>
      <point x="361" y="486" type="line"/>
      <point x="235" y="486" type="line"/>
      <point x="366" y="294" type="line"/>
      <point x="366" y="274" type="line"/>
      <point x="235" y="82" type="line"/>
      <point x="361" y="82" type="line"/>
      <point x="491" y="258" type="line"/>
      <point x="491" y="310" type="line"/>
    </contour>
  </outline>
</glyph>
<glyph name="Ecircumflex" format="1">
  <advance width="606"/>
  <unicode hex="00CA"/>
  <note>
Ecircumflex
</note>
  <outline>
    <component base="E"/>
    <component base="circumflexcomb.case" xOffset="106" yOffset="40"/>
    <contour>
      <point x="562" y="0" type="move" name="ogonek"/>
    </contour>
    <contour>
      <point x="306" y="690" type="move" name="top"/>
    </contour>
  </outline>
</glyph>
<glyph name="Thorn" format="1">
  <advance width="640.39655"/>
  <unicode hex="00DE"/>
  <note>
Thorn
</note>
  <outline>
    <contour>
      <point x="179" y="148" type="line"/>
      <point x="393" y="148" type="line" smooth="yes"/>
      <point x="536" y="148"/>
      <point x="610" y="217"/>
      <point x="610" y="352" type="curve" smooth="yes"/>
      <point x="610" y="488"/>
      <point x="536" y="556"/>
      <point x="391" y="556" type="curve" smooth="yes"/>
      <point x="179" y="556" type="line"/>
      <point x="179" y="456" type="line"/>
      <point x="380" y="456" type="line" smooth="yes"/>
      <point x="434" y="456"/>
      <point x="459" y="429"/>
      <point x="459" y="372" type="curve" smooth="yes"/>
      <point x="459" y="332" type="line" smooth="yes"/>
      <point x="459" y="275"/>
      <point x="434" y="248"/>
      <point x="380" y="248" type="curve" smooth="yes"/>
      <point x="179" y="248" type="line"/>
    </contour>
    <contour>
      <point x="94" y="0" type="line"/>
      <point x="241" y="0" type="line"/>
      <point x="241" y="690" type="line"/>
      <point x="32" y="690" type="line"/>
      <point x="32" y="583" type="line"/>
      <point x="94" y="583" type="line"/>
    </contour>
  </outline>
</glyph>
<glyph name="eth" format="1">
  <advance width="577.46552"/>
  <unicode hex="00F0"/>
  <note>
eth
</note>
  <outline>
    <contour>
      <point x="288" y="-10" type="curve" smooth="yes"/>
      <point x="449" y="-10"/>
      <point x="541" y="90"/>
      <point x="541" y="284" type="curve" smooth="yes"/>
      <point x="541" y="473"/>
      <point x="434" y="620"/>
      <point x="372" y="690" type="curve"/>
      <point x="205" y="690" type="line"/>
      <point x="311" y="576"/>
      <point x="381" y="465"/>
      <point x="395" y="397" type="curve"/>
      <point x="362" y="397" type="line"/>
      <point x="346" y="453"/>
      <point x="299" y="494"/>
      <point x="231" y="494" type="curve" smooth="yes"/>
      <point x="109" y="494"/>
      <point x="33" y="390"/>
      <point x="33" y="241" type="curve" smooth="yes"/>
      <point x="33" y="83"/>
      <point x="126" y="-10"/>
    </contour>
    <contour>
      <point x="287" y="101" type="curve" smooth="yes"/>
      <point x="215" y="101"/>
      <point x="184" y="138"/>
      <point x="184" y="213" type="curve" smooth="yes"/>
      <point x="184" y="276" type="line" smooth="yes"/>
      <point x="184" y="351"/>
      <point x="215" y="389"/>
      <point x="287" y="389" type="curve" smooth="yes"/>
      <point x="358" y="389"/>
      <point x="390" y="351"/>
      <point x="390" y="276" type="curve" smooth="yes"/>
      <point x="390" y="213" type="line" smooth="yes"/>
      <point x="390" y="138"/>
      <point x="358" y="101"/>
    </contour>
    <contour>
      <point x="200" y="522" type="line"/>
      <point x="515" y="587" type="line"/>
      <point x="515" y="666" type="line"/>
      <point x="200" y="600" type="line"/>
    </contour>
  </outline>
</glyph>
<glyph name="oslash" format="1">
  <advance width="587.13793"/>
  <unicode hex="00F8"/>
  <note>
oslash
</note>
  <outline>
    <contour>
      <point x="294" y="-10" type="curve" smooth="yes"/>
      <point x="457" y="-10"/>
      <point x="551" y="88"/>
      <point x="551" y="267" type="curve" smooth="yes"/>
      <point x="551" y="446"/>
      <point x="457" y="544"/>
      <point x="294" y="544" type="curve" smooth="yes"/>
      <point x="130" y="544"/>
      <point x="36" y="446"/>
      <point x="36" y="267" type="curve" smooth="yes"/>
      <point x="36" y="88"/>
      <point x="130" y="-10"/>
    </contour>
    <contour>
      <point x="294" y="98" type="curve" smooth="yes"/>
      <point x="219" y="98"/>
      <point x="184" y="138"/>
      <point x="184" y="228" type="curve" smooth="yes"/>
      <point x="184" y="306" type="line" smooth="yes"/>
      <point x="184" y="396"/>
      <point x="219" y="436"/>
      <point x="294" y="436" type="curve" smooth="yes"/>
      <point x="369" y="436"/>
      <point x="403" y="396"/>
      <point x="403" y="306" type="curve" smooth="yes"/>
      <point x="403" y="228" type="line" smooth="yes"/>
      <point x="403" y="138"/>
      <point x="369" y="98"/>
    </contour>
    <contour>
      <point x="40" y="-10" type="line"/>
      <point x="127" y="-10" type="line"/>
      <point x="185" y="65" type="line"/>
      <point x="190" y="65" type="line"/>
      <point x="446" y="420" type="line"/>
      <point x="452" y="420" type="line"/>
      <point x="547" y="544" type="line"/>
      <point x="460" y="544" type="line"/>
      <point x="402" y="469" type="line"/>
      <point x="397" y="469" type="line"/>
      <point x="141" y="114" type="line"/>
      <point x="135" y="114" type="line"/>
    </contour>
    <contour>
      <point x="294" y="534" type="move" name="top"/>
    </contour>
  </outline>
</glyph>
<glyph name="Aogonek" format="1">
  <advance width="631.41379"/>
  <unicode hex="0104"/>
  <outline>
    <contour>
      <point x="20" y="0" type="line"/>
      <point x="165" y="0" type="line"/>
      <point x="299" y="568" type="line"/>
      <point x="332" y="568" type="line"/>
      <point x="466" y="0" type="line"/>
      <point x="619" y="0" type="line"/>
      <point x="452" y="690" type="line"/>
      <point x="187" y="690" type="line"/>
    </contour>
    <contour>
      <point x="146" y="153" type="line"/>
      <point x="480" y="153" type="line"/>
      <point x="477" y="255" type="line"/>
      <point x="148" y="255" type="line"/>
    </contour>
    <contour>
      <point x="98" y="583" type="line"/>
      <point x="285" y="583" type="line"/>
      <point x="285" y="690" type="line"/>
      <point x="98" y="690" type="line"/>
    </contour>
    <contour>
      <point x="511" y="-143" type="curve" smooth="yes"/>
      <point x="625" y="-143" type="line"/>
      <point x="625" y="-64" type="line"/>
      <point x="556" y="-64" type="line" smooth="yes"/>
      <point x="539" y="-64"/>
      <point x="531" y="-57"/>
      <point x="531" y="-45" type="curve" smooth="yes"/>
      <point x="531" y="-27"/>
      <point x="553" y="-15"/>
      <point x="619" y="0" type="curve"/>
      <point x="514" y="18" type="line"/>
      <point x="514" y="-20" type="line"/>
      <point x="456" y="-28"/>
      <point x="430" y="-48"/>
      <point x="430" y="-84" type="curve" smooth="yes"/>
      <point x="430" y="-122"/>
      <point x="458" y="-143"/>
    </contour>
    <contour>
      <point x="619" y="0" type="move" name="ogonek"/>
    </contour>
    <contour>
      <point x="314" y="690" type="move" name="top"/>
    </contour>
  </outline>
</glyph>
<glyph name="eogonek" format="1">
  <advance width="569.46552"/>
  <unicode hex="0119"/>
  <outline>
    <contour>
      <point x="289" y="-10" type="curve" smooth="yes"/>
      <point x="421" y="-10"/>
      <point x="505" y="53"/>
      <point x="529" y="172" type="curve"/>
      <point x="382" y="172" type="line"/>
      <point x="382" y="162" type="line"/>
      <point x="382" y="139"/>
      <point x="358" y="101"/>
      <point x="289" y="101" type="curve" smooth="yes"/>
      <point x="217" y="101"/>
      <point x="185" y="140"/>
      <point x="185" y="228" type="curve" smooth="yes"/>
      <point x="185" y="309" type="line" smooth="yes"/>
      <point x="185" y="398"/>
      <point x="217" y="437"/>
      <point x="289" y="437" type="curve" smooth="yes"/>
      <point x="361" y="437"/>
      <point x="393" y="398"/>
      <point x="393" y="309" type="curve" smooth="yes"/>
      <point x="393" y="275" type="line"/>
      <point x="488" y="329" type="line"/>
      <point x="125" y="329" type="line"/>
      <point x="125" y="239" type="line"/>
      <point x="536" y="239" type="line"/>
      <point x="536" y="287" type="line" smooth="yes"/>
      <point x="536" y="454"/>
      <point x="447" y="544"/>
      <point x="289" y="544" type="curve" smooth="yes"/>
      <point x="127" y="544"/>
      <point x="34" y="446"/>
      <point x="34" y="267" type="curve" smooth="yes"/>
      <point x="34" y="88"/>
      <point x="127" y="-10"/>
    </contour>
    <contour>
      <point x="360" y="-143" type="curve" smooth="yes"/>
      <point x="478" y="-143" type="line"/>
      <point x="478" y="-64" type="line"/>
      <point x="405" y="-64" type="line" smooth="yes"/>
      <point x="388" y="-64"/>
      <point x="380" y="-57"/>
      <point x="380" y="-45" type="curve" smooth="yes"/>
      <point x="380" y="-27"/>
      <point x="399" y="-4"/>
      <point x="443" y="33" type="curve"/>
      <point x="353" y="18" type="line"/>
      <point x="353" y="-26" type="line"/>
      <point x="302" y="-32"/>
      <point x="278" y="-50"/>
      <point x="278" y="-84" type="curve" smooth="yes"/>
      <point x="278" y="-122"/>
      <point x="307" y="-143"/>
    </contour>
    <contour>
      <point x="371" y="0" type="move" name="ogonek"/>
    </contour>
    <contour>
      <point x="289" y="534" type="move" name="top"/>
    </contour>
  </outline>
</glyph>
<glyph name="IJ" format="1">
  <advance width="703"/>
  <unicode hex="0132"/>
  <outline>
    <contour>
      <point x="368" y="-10" type="curve" smooth="yes"/>
      <point x="548" y="-10"/>
      <point x="636" y="82"/>
      <point x="636" y="276" type="curve" smooth="yes"/>
      <point x="636" y="690" type="line"/>
      <point x="489" y="690" type="line"/>
      <point x="489" y="243" type="line" smooth="yes"/>
      <point x="489" y="148"/>
      <point x="451" y="105"/>
      <point x="368" y="105" type="curve" smooth="yes"/>
      <point x="286" y="105"/>
      <point x="247" y="148"/>
      <point x="247" y="243" type="curve" smooth="yes"/>
      <point x="247" y="288" type="line"/>
      <point x="101" y="288" type="line"/>
      <point x="101" y="275" type="line" smooth="yes"/>
      <point x="101" y="82"/>
      <point x="189" y="-10"/>
    </contour>
    <contour>
      <point x="54" y="322" type="line"/>
      <point x="294" y="322" type="line"/>
      <point x="294" y="426" type="line"/>
      <point x="242" y="426" type="line"/>
      <point x="242" y="583" type="line"/>
      <point x="294" y="583" type="line"/>
      <point x="294" y="690" type="line"/>
      <point x="54" y="690" type="line"/>
      <point x="54" y="583" type="line"/>
      <point x="106" y="583" type="line"/>
      <point x="106" y="426" type="line"/>
      <point x="54" y="426" type="line"/>
    </contour>
    <contour>
      <point x="387" y="583" type="line"/>
      <point x="554" y="583" type="line"/>
      <point x="554" y="690" type="line"/>
      <point x="387" y="690" type="line"/>
    </contour>
  </outline>
</glyph>
<glyph name="OE" format="1">
  <advance width="989.27586"/>
  <unicode hex="0152"/>
  <note>
OE
</note>
  <outline>
    <contour>
      <point x="334" y="0" type="curve" smooth="yes"/>
      <point x="543" y="0" type="line"/>
      <point x="543" y="107" type="line"/>
      <point x="344" y="107" type="line" smooth="yes"/>
      <point x="241" y="107"/>
      <point x="195" y="162"/>
      <point x="195" y="285" type="curve" smooth="yes"/>
      <point x="195" y="405" type="line" smooth="yes"/>
      <point x="195" y="528"/>
      <point x="241" y="583"/>
      <point x="344" y="583" type="curve" smooth="yes"/>
      <point x="543" y="583" type="line"/>
      <point x="543" y="690" type="line"/>
      <point x="334" y="690" type="line" smooth="yes"/>
      <point x="137" y="690"/>
      <point x="40" y="586"/>
      <point x="40" y="345" type="curve" smooth="yes"/>
      <point x="40" y="105"/>
      <point x="137" y="0"/>
    </contour>
    <contour>
      <point x="819" y="483" type="line"/>
      <point x="941" y="483" type="line"/>
      <point x="941" y="690" type="line"/>
      <point x="460" y="690" type="line"/>
      <point x="460" y="0" type="line"/>
      <point x="945" y="0" type="line"/>
      <point x="945" y="211" type="line"/>
      <point x="823" y="211" type="line"/>
      <point x="823" y="107" type="line"/>
      <point x="607" y="107" type="line"/>
      <point x="607" y="303" type="line"/>
      <point x="837" y="303" type="line"/>
      <point x="837" y="401" type="line"/>
      <point x="607" y="401" type="line"/>
      <point x="607" y="583" type="line"/>
      <point x="819" y="583" type="line"/>
    </contour>
    <contour>
      <point x="945" y="0" type="move" name="ogonek"/>
    </contour>
    <contour>
      <point x="698" y="690" type="move" name="top"/>
    </contour>
  </outline>
</glyph>
<glyph name="florin" format="1">
  <advance width="459.33621"/>
  <unicode hex="0192"/>
  <outline>
    <contour>
      <point x="44" y="0" type="line"/>
      <point x="206" y="0" type="line" smooth="yes"/>
      <point x="263" y="0"/>
      <point x="295" y="31"/>
      <point x="295" y="89" type="curve" smooth="yes"/>
      <point x="295" y="583" type="line"/>
      <point x="422" y="583" type="line"/>
      <point x="422" y="690" type="line"/>
      <point x="239" y="690" type="line" smooth="yes"/>
      <point x="182" y="690"/>
      <point x="151" y="659"/>
      <point x="151" y="601" type="curve" smooth="yes"/>
      <point x="151" y="107" type="line"/>
      <point x="44" y="107" type="line"/>
    </contour>
    <contour>
      <point x="44" y="371" type="line"/>
      <point x="422" y="371" type="line"/>
      <point x="422" y="463" type="line"/>
      <point x="44" y="463" type="line"/>
    </contour>
  </outline>
</glyph>
<glyph name="jdotless" format="1">
  <advance width="271.87931"/>
  <unicode hex="0237"/>
  <outline>
    <contour>
      <point x="5" y="-132" type="line"/>
      <point x="124" y="-132" type="line" smooth="yes"/>
      <point x="181" y="-132"/>
      <point x="212" y="-101"/>
      <point x="212" y="-43" type="curve" smooth="yes"/>
      <point x="212" y="534" type="line"/>
      <point x="12" y="534" type="line"/>
      <point x="12" y="431" type="line"/>
      <point x="69" y="431" type="line"/>
      <point x="69" y="-29" type="line"/>
      <point x="5" y="-29" type="line"/>
    </contour>
    <contour>
      <point x="139" y="534" type="move" name="top"/>
    </contour>
  </outline>
</glyph>
<glyph name="breve" format="1">
  <advance width="400"/>
  <unicode hex="02D8"/>
  <outline>
    <contour>
      <point x="200" y="570" type="curve" smooth="yes"/>
      <point x="296" y="570"/>
      <point x="351" y="614"/>
      <point x="364" y="701" type="curve"/>
      <point x="250" y="701" type="line"/>
      <point x="250" y="701" type="line"/>
      <point x="250" y="673"/>
      <point x="231" y="657"/>
      <point x="200" y="657" type="curve" smooth="yes"/>
      <point x="169" y="657"/>
      <point x="150" y="673"/>
      <point x="150" y="701" type="curve"/>
      <point x="150" y="701" type="line"/>
      <point x="36" y="701" type="line"/>
      <point x="49" y="614"/>
      <point x="104" y="570"/>
    </contour>
    <contour>
      <point x="200" y="534" type="move" name="_top"/>
    </contour>
  </outline>
</glyph>
<glyph name="hungarumlaut" format="1">
  <advance width="400"/>
  <unicode hex="02DD"/>
  <outline>
    <component base="acutecomb" xOffset="-89" identifier="E10799BC"/>
    <component base="acutecomb" xOffset="89" identifier="E276BFA5"/>
    <contour>
      <point x="111" y="534" type="move" name="_top"/>
    </contour>
  </outline>
</glyph>
<glyph name="ringcomb" format="1">
  <advance width="0"/>
  <unicode hex="030A"/>
  <note>
ring
</note>
  <outline>
    <contour>
      <point x="200" y="566" type="curve" smooth="yes"/>
      <point x="266" y="566"/>
      <point x="309" y="605"/>
      <point x="309" y="663" type="curve" smooth="yes"/>
      <point x="309" y="721"/>
      <point x="266" y="760"/>
      <point x="200" y="760" type="curve" smooth="yes"/>
      <point x="134" y="760"/>
      <point x="91" y="721"/>
      <point x="91" y="663" type="curve" smooth="yes"/>
      <point x="91" y="605"/>
      <point x="134" y="566"/>
    </contour>
    <contour>
      <point x="200" y="623" type="curve" smooth="yes"/>
      <point x="177" y="623"/>
      <point x="165" y="636"/>
      <point x="165" y="661" type="curve" smooth="yes"/>
      <point x="165" y="665" type="line" smooth="yes"/>
      <point x="165" y="690"/>
      <point x="177" y="702"/>
      <point x="200" y="702" type="curve" smooth="yes"/>
      <point x="223" y="702"/>
      <point x="235" y="690"/>
      <point x="235" y="665" type="curve" smooth="yes"/>
      <point x="235" y="661" type="line" smooth="yes"/>
      <point x="235" y="636"/>
      <point x="223" y="623"/>
    </contour>
    <contour>
      <point x="200" y="534" type="move" name="_top"/>
    </contour>
  </outline>
</glyph>
<glyph name="ogonekcomb" format="1">
  <advance width="0"/>
  <unicode hex="0328"/>
  <outline>
    <contour>
      <point x="92" y="-143" type="curve" smooth="yes"/>
      <point x="207" y="-143" type="line"/>
      <point x="207" y="-64" type="line"/>
      <point x="138" y="-64" type="line" smooth="yes"/>
      <point x="120" y="-64"/>
      <point x="112" y="-57"/>
      <point x="112" y="-45" type="curve" smooth="yes"/>
      <point x="112" y="-27"/>
      <point x="135" y="-15"/>
      <point x="201" y="0" type="curve"/>
      <point x="94" y="18" type="line"/>
      <point x="94" y="-21" type="line"/>
      <point x="37" y="-28"/>
      <point x="11" y="-48"/>
      <point x="11" y="-84" type="curve" smooth="yes"/>
      <point x="11" y="-122"/>
      <point x="39" y="-143"/>
    </contour>
    <contour>
      <point x="200" y="0" type="move" name="_ogonek"/>
    </contour>
  </outline>
</glyph>
<glyph name="Germandbls" format="1">
  <advance width="668.31034"/>
  <unicode hex="1E9E"/>
  <outline>
    <contour>
      <point x="94" y="0" type="line"/>
      <point x="240" y="0" type="line"/>
      <point x="240" y="583" type="line"/>
      <point x="452" y="583" type="line"/>
      <point x="340" y="410" type="line"/>
      <point x="340" y="311" type="line"/>
      <point x="389" y="311" type="line" smooth="yes"/>
      <point x="452" y="311"/>
      <point x="482" y="285"/>
      <point x="482" y="228" type="curve" smooth="yes"/>
      <point x="482" y="190" type="line" smooth="yes"/>
      <point x="482" y="133"/>
      <point x="452" y="107"/>
      <point x="389" y="107" type="curve" smooth="yes"/>
      <point x="297" y="107" type="line"/>
      <point x="297" y="0" type="line"/>
      <point x="400" y="0" type="line" smooth="yes"/>
      <point x="552" y="0"/>
      <point x="632" y="69"/>
      <point x="632" y="207" type="curve" smooth="yes"/>
      <point x="632" y="340"/>
      <point x="556" y="409"/>
      <point x="412" y="409" type="curve"/>
      <point x="383" y="409" type="line"/>
      <point x="455" y="345" type="line"/>
      <point x="612" y="583" type="line"/>
      <point x="612" y="690" type="line"/>
      <point x="31" y="690" type="line"/>
      <point x="31" y="583" type="line"/>
      <point x="94" y="583" type="line"/>
    </contour>
  </outline>
</glyph>
<glyph name="quotedblleft" format="1">
  <advance width="400.16379"/>
  <unicode hex="201C"/>
  <outline>
    <contour>
      <point x="367" y="690" type="line"/>
      <point x="292" y="690" type="line"/>
      <point x="214" y="591" type="line"/>
      <point x="214" y="444" type="line"/>
      <point x="366" y="444" type="line"/>
      <point x="366" y="591" type="line"/>
      <point x="292" y="591" type="line"/>
    </contour>
    <contour>
      <point x="185" y="690" type="line"/>
      <point x="111" y="690" type="line"/>
      <point x="33" y="591" type="line"/>
      <point x="33" y="444" type="line"/>
      <point x="185" y="444" type="line"/>
      <point x="185" y="591" type="line"/>
      <point x="110" y="591" type="line"/>
    </contour>
  </outline>
</glyph>
<glyph name="dagger" format="1">
  <advance width="428.71552"/>
  <unicode hex="2020"/>
  <outline>
    <contour>
      <point x="21" y="437" type="line"/>
      <point x="409" y="437" type="line"/>
      <point x="409" y="534" type="line"/>
      <point x="329" y="534" type="line"/>
      <point x="256" y="491" type="line"/>
      <point x="249" y="497" type="line"/>
      <point x="274" y="589" type="line"/>
      <point x="274" y="690" type="line"/>
      <point x="155" y="690" type="line"/>
      <point x="155" y="589" type="line"/>
      <point x="180" y="497" type="line"/>
      <point x="173" y="491" type="line"/>
      <point x="100" y="534" type="line"/>
      <point x="21" y="534" type="line"/>
    </contour>
    <contour>
      <point x="176" y="0" type="line"/>
      <point x="253" y="0" type="line"/>
      <point x="282" y="328" type="line"/>
      <point x="253" y="452" type="line"/>
      <point x="176" y="452" type="line"/>
      <point x="147" y="328" type="line"/>
    </contour>
  </outline>
</glyph>
<glyph name="perthousand" format="1">
  <advance width="1188.80172"/>
  <unicode hex="2030"/>
  <outline>
    <contour>
      <point x="53" y="0" type="line"/>
      <point x="181" y="0" type="line"/>
      <point x="393" y="322" type="line"/>
      <point x="265" y="322" type="line"/>
    </contour>
    <contour>
      <point x="389" y="368" type="line"/>
      <point x="517" y="368" type="line"/>
      <point x="729" y="690" type="line"/>
      <point x="601" y="690" type="line"/>
    </contour>
    <contour>
      <point x="217" y="360" type="curve" smooth="yes"/>
      <point x="341" y="360"/>
      <point x="409" y="431"/>
      <point x="409" y="530" type="curve" smooth="yes"/>
      <point x="409" y="629"/>
      <point x="341" y="700"/>
      <point x="217" y="700" type="curve" smooth="yes"/>
      <point x="92" y="700"/>
      <point x="24" y="629"/>
      <point x="24" y="530" type="curve" smooth="yes"/>
      <point x="24" y="431"/>
      <point x="92" y="360"/>
    </contour>
    <contour>
      <point x="217" y="444" type="curve" smooth="yes"/>
      <point x="168" y="444"/>
      <point x="143" y="467"/>
      <point x="143" y="510" type="curve" smooth="yes"/>
      <point x="143" y="550" type="line" smooth="yes"/>
      <point x="143" y="593"/>
      <point x="168" y="616"/>
      <point x="217" y="616" type="curve" smooth="yes"/>
      <point x="266" y="616"/>
      <point x="291" y="593"/>
      <point x="291" y="550" type="curve" smooth="yes"/>
      <point x="291" y="510" type="line" smooth="yes"/>
      <point x="291" y="467"/>
      <point x="266" y="444"/>
    </contour>
    <contour>
      <point x="565" y="-10" type="curve" smooth="yes"/>
      <point x="690" y="-10"/>
      <point x="757" y="61"/>
      <point x="757" y="160" type="curve" smooth="yes"/>
      <point x="757" y="259"/>
      <point x="690" y="330"/>
      <point x="565" y="330" type="curve" smooth="yes"/>
      <point x="440" y="330"/>
      <point x="373" y="259"/>
      <point x="373" y="160" type="curve" smooth="yes"/>
      <point x="373" y="61"/>
      <point x="440" y="-10"/>
    </contour>
    <contour>
      <point x="565" y="74" type="curve" smooth="yes"/>
      <point x="516" y="74"/>
      <point x="492" y="97"/>
      <point x="492" y="140" type="curve" smooth="yes"/>
      <point x="492" y="180" type="line" smooth="yes"/>
      <point x="492" y="223"/>
      <point x="516" y="246"/>
      <point x="565" y="246" type="curve" smooth="yes"/>
      <point x="615" y="246"/>
      <point x="639" y="223"/>
      <point x="639" y="180" type="curve" smooth="yes"/>
      <point x="639" y="140" type="line" smooth="yes"/>
      <point x="639" y="97"/>
      <point x="615" y="74"/>
    </contour>
    <contour>
      <point x="980" y="-10" type="curve" smooth="yes"/>
      <point x="1104" y="-10"/>
      <point x="1172" y="61"/>
      <point x="1172" y="160" type="curve" smooth="yes"/>
      <point x="1172" y="259"/>
      <point x="1104" y="330"/>
      <point x="980" y="330" type="curve" smooth="yes"/>
      <point x="855" y="330"/>
      <point x="787" y="259"/>
      <point x="787" y="160" type="curve" smooth="yes"/>
      <point x="787" y="61"/>
      <point x="855" y="-10"/>
    </contour>
    <contour>
      <point x="980" y="74" type="curve" smooth="yes"/>
      <point x="930" y="74"/>
      <point x="906" y="97"/>
      <point x="906" y="140" type="curve" smooth="yes"/>
      <point x="906" y="180" type="line" smooth="yes"/>
      <point x="906" y="223"/>
      <point x="930" y="246"/>
      <point x="980" y="246" type="curve" smooth="yes"/>
      <point x="1029" y="246"/>
      <point x="1054" y="223"/>
      <point x="1054" y="180" type="curve" smooth="yes"/>
      <point x="1054" y="140" type="line" smooth="yes"/>
      <point x="1054" y="97"/>
      <point x="1029" y="74"/>
    </contour>
  </outline>
</glyph>
<glyph name="fraction" format="1">
  <advance width="34.18103"/>
  <unicode hex="2044"/>
  <note>
fraction
</note>
  <outline>
    <contour>
      <point x="-273" y="0" type="line"/>
      <point x="-158" y="0" type="line"/>
      <point x="5" y="322" type="line"/>
      <point x="-110" y="322" type="line"/>
    </contour>
    <contour>
      <point x="29" y="368" type="line"/>
      <point x="144" y="368" type="line"/>
      <point x="306" y="690" type="line"/>
      <point x="192" y="690" type="line"/>
    </contour>
  </outline>
</glyph>
<glyph name="trademark" format="1">
  <advance width="910.51724"/>
  <unicode hex="2122"/>
  <outline>
    <contour>
      <point x="156" y="304" type="line"/>
      <point x="247" y="304" type="line"/>
      <point x="247" y="624" type="line"/>
      <point x="294" y="624" type="line"/>
      <point x="294" y="562" type="line"/>
      <point x="369" y="562" type="line"/>
      <point x="369" y="690" type="line"/>
      <point x="35" y="690" type="line"/>
      <point x="35" y="562" type="line"/>
      <point x="109" y="562" type="line"/>
      <point x="109" y="624" type="line"/>
      <point x="156" y="624" type="line"/>
    </contour>
    <contour>
      <point x="404" y="304" type="line"/>
      <point x="494" y="304" type="line"/>
      <point x="494" y="615" type="line"/>
      <point x="514" y="615" type="line"/>
      <point x="581" y="304" type="line"/>
      <point x="665" y="304" type="line"/>
      <point x="732" y="615" type="line"/>
      <point x="752" y="615" type="line"/>
      <point x="752" y="304" type="line"/>
      <point x="844" y="304" type="line"/>
      <point x="844" y="690" type="line"/>
      <point x="680" y="690" type="line"/>
      <point x="634" y="467" type="line"/>
      <point x="614" y="467" type="line"/>
      <point x="567" y="690" type="line"/>
      <point x="404" y="690" type="line"/>
    </contour>
  </outline>
</glyph>
<glyph name="Ohm" format="1">
  <advance width="701.81897"/>
  <unicode hex="2126"/>
  <outline>
    <contour>
      <point x="46" y="0" type="line"/>
      <point x="293" y="0" type="line"/>
      <point x="293" y="129" type="line"/>
      <point x="238" y="175"/>
      <point x="198" y="241"/>
      <point x="198" y="333" type="curve" smooth="yes"/>
      <point x="198" y="427" type="line" smooth="yes"/>
      <point x="198" y="531"/>
      <point x="258" y="585"/>
      <point x="351" y="585" type="curve" smooth="yes"/>
      <point x="442" y="585"/>
      <point x="503" y="531"/>
      <point x="503" y="427" type="curve" smooth="yes"/>
      <point x="503" y="333" type="line" smooth="yes"/>
      <point x="503" y="241"/>
      <point x="463" y="175"/>
      <point x="408" y="129" type="curve"/>
      <point x="408" y="0" type="line"/>
      <point x="655" y="0" type="line"/>
      <point x="655" y="104" type="line"/>
      <point x="507" y="104" type="line"/>
      <point x="507" y="136" type="line"/>
      <point x="604" y="180"/>
      <point x="658" y="262"/>
      <point x="658" y="388" type="curve" smooth="yes"/>
      <point x="658" y="584"/>
      <point x="536" y="700"/>
      <point x="351" y="700" type="curve" smooth="yes"/>
      <point x="165" y="700"/>
      <point x="43" y="584"/>
      <point x="43" y="388" type="curve" smooth="yes"/>
      <point x="43" y="262"/>
      <point x="97" y="180"/>
      <point x="193" y="136" type="curve"/>
      <point x="193" y="104" type="line"/>
      <point x="46" y="104" type="line"/>
    </contour>
  </outline>
</glyph>
<glyph name="product" format="1">
  <advance width="732.22414"/>
  <unicode hex="220F"/>
  <outline>
    <contour>
      <point x="480" y="0" type="line"/>
      <point x="627" y="0" type="line"/>
      <point x="627" y="583" type="line"/>
      <point x="706" y="583" type="line"/>
      <point x="706" y="690" type="line"/>
      <point x="27" y="690" type="line"/>
      <point x="27" y="583" type="line"/>
      <point x="106" y="583" type="line"/>
      <point x="106" y="0" type="line"/>
      <point x="252" y="0" type="line"/>
      <point x="252" y="583" type="line"/>
      <point x="480" y="583" type="line"/>
    </contour>
  </outline>
</glyph>
<glyph name="minus" format="1">
  <advance width="474.58621"/>
  <unicode hex="2212"/>
  <outline>
    <contour>
      <point x="24" y="286" type="line"/>
      <point x="450" y="286" type="line"/>
      <point x="450" y="388" type="line"/>
      <point x="24" y="388" type="line"/>
    </contour>
  </outline>
</glyph>
<glyph name="notequal" format="1">
  <advance width="474.58621"/>
  <unicode hex="2260"/>
  <outline>
    <contour>
      <point x="100" y="120" type="line"/>
      <point x="198" y="120" type="line"/>
      <point x="375" y="554" type="line"/>
      <point x="277" y="554" type="line"/>
    </contour>
    <contour>
      <point x="24" y="368" type="line"/>
      <point x="450" y="368" type="line"/>
      <point x="450" y="470" type="line"/>
      <point x="24" y="470" type="line"/>
    </contour>
    <contour>
      <point x="24" y="204" type="line"/>
      <point x="450" y="204" type="line"/>
      <point x="450" y="306" type="line"/>
      <point x="24" y="306" type="line"/>
    </contour>
  </outline>
</glyph>
<glyph name="lozenge" format="1">
  <advance width="664.65517"/>
  <unicode hex="25CA"/>
  <outline>
    <contour>
      <point x="272" y="0" type="line"/>
      <point x="394" y="0" type="line"/>
      <point x="630" y="345" type="line"/>
      <point x="394" y="690" type="line"/>
      <point x="272" y="690" type="line"/>
      <point x="35" y="345" type="line"/>
    </contour>
    <contour>
      <point x="316" y="135" type="line"/>
      <point x="174" y="345" type="line"/>
      <point x="316" y="555" type="line"/>
      <point x="348" y="555" type="line"/>
      <point x="492" y="345" type="line"/>
      <point x="348" y="135" type="line"/>
    </contour>
  </outline>
</glyph>
<glyph name="Aogonek.ss03" format="1">
  <advance width="624.96552"/>
  <outline>
    <contour>
      <point x="13" y="0" type="line"/>
      <point x="159" y="0" type="line"/>
      <point x="293" y="568" type="line"/>
      <point x="325" y="568" type="line"/>
      <point x="460" y="0" type="line"/>
      <point x="612" y="0" type="line"/>
      <point x="445" y="690" type="line"/>
      <point x="180" y="690" type="line"/>
    </contour>
    <contour>
      <point x="135" y="153" type="line"/>
      <point x="477" y="153" type="line"/>
      <point x="476" y="255" type="line"/>
      <point x="137" y="255" type="line"/>
    </contour>
    <contour>
      <point x="504" y="-143" type="curve" smooth="yes"/>
      <point x="619" y="-143" type="line"/>
      <point x="619" y="-64" type="line"/>
      <point x="550" y="-64" type="line" smooth="yes"/>
      <point x="532" y="-64"/>
      <point x="524" y="-57"/>
      <point x="524" y="-45" type="curve" smooth="yes"/>
      <point x="524" y="-27"/>
      <point x="547" y="-15"/>
      <point x="612" y="0" type="curve"/>
      <point x="507" y="18" type="line"/>
      <point x="507" y="-20" type="line"/>
      <point x="449" y="-28"/>
      <point x="423" y="-48"/>
      <point x="423" y="-84" type="curve" smooth="yes"/>
      <point x="423" y="-122"/>
      <point x="451" y="-143"/>
    </contour>
    <contour>
      <point x="612" y="0" type="move" name="ogonek"/>
    </contour>
    <contour>
      <point x="309" y="690" type="move" name="top"/>
    </contour>
  </outline>
</glyph>
<glyph name="B.ss03" format="1">
  <advance width="626.27586"/>
  <outline>
    <contour>
      <point x="68" y="0" type="line"/>
      <point x="371" y="0" type="line" smooth="yes"/>
      <point x="507" y="0"/>
      <point x="587" y="68"/>
      <point x="587" y="191" type="curve" smooth="yes"/>
      <point x="587" y="283"/>
      <point x="542" y="330"/>
      <point x="457" y="336" type="curve"/>
      <point x="457" y="368" type="line"/>
      <point x="536" y="374"/>
      <point x="580" y="419"/>
      <point x="580" y="506" type="curve" smooth="yes"/>
      <point x="580" y="624"/>
      <point x="502" y="690"/>
      <point x="368" y="690" type="curve"/>
      <point x="68" y="690" type="line"/>
    </contour>
    <contour>
      <point x="361" y="107" type="curve" smooth="yes"/>
      <point x="215" y="107" type="line"/>
      <point x="215" y="303" type="line"/>
      <point x="361" y="303" type="line" smooth="yes"/>
      <point x="413" y="303"/>
      <point x="436" y="277"/>
      <point x="436" y="223" type="curve" smooth="yes"/>
      <point x="436" y="187" type="line" smooth="yes"/>
      <point x="436" y="132"/>
      <point x="413" y="107"/>
    </contour>
    <contour>
      <point x="359" y="401" type="curve" smooth="yes"/>
      <point x="215" y="401" type="line"/>
      <point x="215" y="583" type="line"/>
      <point x="359" y="583" type="line" smooth="yes"/>
      <point x="408" y="583"/>
      <point x="429" y="560"/>
      <point x="429" y="508" type="curve" smooth="yes"/>
      <point x="429" y="477" type="line" smooth="yes"/>
      <point x="429" y="426"/>
      <point x="408" y="401"/>
    </contour>
  </outline>
</glyph>
<glyph name="Eth.ss03" format="1">
  <advance width="706.73276"/>
  <note>
Eth
</note>
  <outline>
    <contour>
      <point x="23" y="303" type="line"/>
      <point x="367" y="303" type="line"/>
      <point x="367" y="401" type="line"/>
      <point x="23" y="401" type="line"/>
    </contour>
    <contour>
      <point x="99" y="0" type="line"/>
      <point x="374" y="0" type="line" smooth="yes"/>
      <point x="571" y="0"/>
      <point x="668" y="104"/>
      <point x="668" y="345" type="curve" smooth="yes"/>
      <point x="668" y="585"/>
      <point x="571" y="690"/>
      <point x="374" y="690" type="curve" smooth="yes"/>
      <point x="99" y="690" type="line"/>
    </contour>
    <contour>
      <point x="364" y="107" type="curve" smooth="yes"/>
      <point x="245" y="107" type="line"/>
      <point x="245" y="583" type="line"/>
      <point x="364" y="583" type="line" smooth="yes"/>
      <point x="467" y="583"/>
      <point x="514" y="528"/>
      <point x="514" y="405" type="curve" smooth="yes"/>
      <point x="514" y="285" type="line" smooth="yes"/>
      <point x="514" y="162"/>
      <point x="467" y="107"/>
    </contour>
  </outline>
</glyph>
<glyph name="F.ss03" format="1">
  <advance width="578.15517"/>
  <outline>
    <contour>
      <point x="70" y="0" type="line"/>
      <point x="217" y="0" type="line"/>
      <point x="217" y="303" type="line"/>
      <point x="447" y="303" type="line"/>
      <point x="447" y="401" type="line"/>
      <point x="217" y="401" type="line"/>
      <point x="217" y="583" type="line"/>
      <point x="428" y="583" type="line"/>
      <point x="428" y="483" type="line"/>
      <point x="550" y="483" type="line"/>
      <point x="550" y="690" type="line"/>
      <point x="70" y="690" type="line"/>
    </contour>
  </outline>
</glyph>
<glyph name="H.ss03" format="1">
  <advance width="670.69828"/>
  <outline>
    <contour>
      <point x="455" y="0" type="line"/>
      <point x="602" y="0" type="line"/>
      <point x="602" y="690" type="line"/>
      <point x="455" y="690" type="line"/>
    </contour>
    <contour>
      <point x="69" y="0" type="line"/>
      <point x="215" y="0" type="line"/>
      <point x="215" y="690" type="line"/>
      <point x="69" y="690" type="line"/>
    </contour>
    <contour>
      <point x="160" y="301" type="line"/>
      <point x="507" y="301" type="line"/>
      <point x="507" y="403" type="line"/>
      <point x="160" y="403" type="line"/>
    </contour>
  </outline>
</glyph>
<glyph name="Lslash.ss03" format="1">
  <advance width="596.72414"/>
  <note>
Lslash
</note>
  <outline>
    <contour>
      <point x="96" y="0" type="line"/>
      <point x="567" y="0" type="line"/>
      <point x="567" y="211" type="line"/>
      <point x="446" y="211" type="line"/>
      <point x="446" y="107" type="line"/>
      <point x="243" y="107" type="line"/>
      <point x="243" y="690" type="line"/>
      <point x="96" y="690" type="line"/>
    </contour>
    <contour>
      <point x="223" y="690" type="line"/>
      <point x="223" y="583" type="line"/>
      <point x="306" y="583" type="line"/>
      <point x="306" y="690" type="line"/>
    </contour>
    <contour>
      <point x="34" y="171" type="line"/>
      <point x="384" y="351" type="line"/>
      <point x="384" y="457" type="line"/>
      <point x="34" y="278" type="line"/>
    </contour>
  </outline>
</glyph>
<glyph name="N.ss03" format="1">
  <advance width="677.02586"/>
  <outline>
    <contour>
      <point x="69" y="0" type="line"/>
      <point x="211" y="0" type="line"/>
      <point x="211" y="347" type="line" smooth="yes"/>
      <point x="211" y="378"/>
      <point x="208" y="410"/>
      <point x="201" y="473" type="curve"/>
      <point x="234" y="473" type="line"/>
      <point x="471" y="0" type="line"/>
      <point x="608" y="0" type="line"/>
      <point x="608" y="690" type="line"/>
      <point x="466" y="690" type="line"/>
      <point x="466" y="437" type="line" smooth="yes"/>
      <point x="466" y="406"/>
      <point x="469" y="374"/>
      <point x="476" y="311" type="curve"/>
      <point x="443" y="311" type="line"/>
      <point x="245" y="690" type="line"/>
      <point x="69" y="690" type="line"/>
    </contour>
    <contour>
      <point x="338" y="690" type="move" name="top"/>
    </contour>
  </outline>
</glyph>
<glyph name="P.ss03" format="1">
  <advance width="605.31897"/>
  <outline>
    <contour>
      <point x="68" y="0" type="line"/>
      <point x="214" y="0" type="line"/>
      <point x="214" y="275" type="line"/>
      <point x="366" y="275" type="line" smooth="yes"/>
      <point x="509" y="275"/>
      <point x="583" y="344"/>
      <point x="583" y="479" type="curve" smooth="yes"/>
      <point x="583" y="620"/>
      <point x="508" y="690"/>
      <point x="363" y="690" type="curve" smooth="yes"/>
      <point x="68" y="690" type="line"/>
    </contour>
    <contour>
      <point x="353" y="374" type="curve" smooth="yes"/>
      <point x="214" y="374" type="line"/>
      <point x="214" y="583" type="line"/>
      <point x="353" y="583" type="line" smooth="yes"/>
      <point x="408" y="583"/>
      <point x="433" y="556"/>
      <point x="433" y="499" type="curve" smooth="yes"/>
      <point x="433" y="459" type="line" smooth="yes"/>
      <point x="433" y="402"/>
      <point x="408" y="374"/>
    </contour>
  </outline>
</glyph>
<glyph name="U.ss03" format="1">
  <advance width="683.65517"/>
  <outline>
    <contour>
      <point x="267" y="-10" type="curve" smooth="yes"/>
      <point x="369" y="-10"/>
      <point x="425" y="33"/>
      <point x="447" y="124" type="curve"/>
      <point x="480" y="124" type="line"/>
      <point x="480" y="89" type="line" smooth="yes"/>
      <point x="480" y="31"/>
      <point x="511" y="0"/>
      <point x="568" y="0" type="curve" smooth="yes"/>
      <point x="670" y="0" type="line"/>
      <point x="670" y="107" type="line"/>
      <point x="607" y="107" type="line"/>
      <point x="607" y="690" type="line"/>
      <point x="461" y="690" type="line"/>
      <point x="461" y="253" type="line" smooth="yes"/>
      <point x="461" y="151"/>
      <point x="422" y="105"/>
      <point x="335" y="105" type="curve" smooth="yes"/>
      <point x="249" y="105"/>
      <point x="210" y="151"/>
      <point x="210" y="253" type="curve" smooth="yes"/>
      <point x="210" y="690" type="line"/>
      <point x="63" y="690" type="line"/>
      <point x="63" y="224" type="line" smooth="yes"/>
      <point x="63" y="72"/>
      <point x="134" y="-10"/>
    </contour>
    <contour>
      <point x="335" y="690" type="move" name="top"/>
    </contour>
  </outline>
</glyph>
<glyph name=".notdef" format="1">
  <advance width="663.59483"/>
  <outline>
    <contour>
      <point x="75" y="0" type="line"/>
      <point x="589" y="0" type="line"/>
      <point x="589" y="690" type="line"/>
      <point x="75" y="690" type="line"/>
    </contour>
    <contour>
      <point x="184" y="103" type="line"/>
      <point x="184" y="587" type="line"/>
      <point x="479" y="587" type="line"/>
      <point x="479" y="103" type="line"/>
    </contour>
  </outline>
</glyph>
<glyph name="a.ss01" format="1">
  <advance width="614.76724"/>
  <outline>
    <contour>
      <point x="232" y="-10" type="curve" smooth="yes"/>
      <point x="307" y="-10"/>
      <point x="357" y="31"/>
      <point x="374" y="108" type="curve"/>
      <point x="407" y="108" type="line"/>
      <point x="407" y="89" type="line" smooth="yes"/>
      <point x="407" y="31"/>
      <point x="438" y="0"/>
      <point x="495" y="0" type="curve" smooth="yes"/>
      <point x="586" y="0" type="line"/>
      <point x="586" y="103" type="line"/>
      <point x="530" y="103" type="line"/>
      <point x="530" y="431" type="line"/>
      <point x="586" y="431" type="line"/>
      <point x="586" y="534" type="line"/>
      <point x="407" y="534" type="line"/>
      <point x="407" y="426" type="line"/>
      <point x="374" y="426" type="line"/>
      <point x="357" y="503"/>
      <point x="307" y="544"/>
      <point x="232" y="544" type="curve" smooth="yes"/>
      <point x="113" y="544"/>
      <point x="36" y="440"/>
      <point x="36" y="267" type="curve" smooth="yes"/>
      <point x="36" y="94"/>
      <point x="113" y="-10"/>
    </contour>
    <contour>
      <point x="287" y="101" type="curve" smooth="yes"/>
      <point x="217" y="101"/>
      <point x="186" y="140"/>
      <point x="186" y="228" type="curve" smooth="yes"/>
      <point x="186" y="306" type="line" smooth="yes"/>
      <point x="186" y="394"/>
      <point x="217" y="433"/>
      <point x="287" y="433" type="curve" smooth="yes"/>
      <point x="357" y="433"/>
      <point x="388" y="394"/>
      <point x="388" y="306" type="curve" smooth="yes"/>
      <point x="388" y="228" type="line" smooth="yes"/>
      <point x="388" y="140"/>
      <point x="357" y="101"/>
    </contour>
    <contour>
      <point x="586" y="0" type="move" name="ogonek"/>
    </contour>
    <contour>
      <point x="287" y="534" type="move" name="top"/>
    </contour>
  </outline>
</glyph>
<glyph name="aring.ss01" format="1">
  <advance width="615"/>
  <note>
aring
</note>
  <outline>
    <component base="a.ss01"/>
    <component base="ringcomb" xOffset="87"/>
    <contour>
      <point x="586" y="0" type="move" name="ogonek"/>
    </contour>
    <contour>
      <point x="287" y="534" type="move" name="top"/>
    </contour>
  </outline>
</glyph>
<glyph name="circumflexcomb.case" format="1">
  <advance width="0"/>
  <note>
circumflex
</note>
  <outline>
    <component base="circumflexcomb" yOffset="116" identifier="710613D2"/>
    <contour>
      <point x="200" y="650" type="move" name="_top"/>
    </contour>
  </outline>
</glyph>
<glyph name="f_f" format="1">
  <advance width="753.32759"/>
  <outline>
    <contour>
      <point x="103" y="601" type="curve" smooth="yes"/>
      <point x="103" y="0" type="line"/>
      <point x="246" y="0" type="line"/>
      <point x="246" y="587" type="line"/>
      <point x="354" y="587" type="line"/>
      <point x="354" y="690" type="line"/>
      <point x="191" y="690" type="line" smooth="yes"/>
      <point x="134" y="690"/>
      <point x="103" y="659"/>
    </contour>
    <contour>
      <point x="37" y="0" type="line"/>
      <point x="339" y="0" type="line"/>
      <point x="339" y="103" type="line"/>
      <point x="37" y="103" type="line"/>
    </contour>
    <contour>
      <point x="30" y="431" type="line"/>
      <point x="354" y="431" type="line"/>
      <point x="354" y="534" type="line"/>
      <point x="30" y="534" type="line"/>
    </contour>
    <contour>
      <point x="480" y="601" type="curve" smooth="yes"/>
      <point x="480" y="0" type="line"/>
      <point x="623" y="0" type="line"/>
      <point x="623" y="587" type="line"/>
      <point x="731" y="587" type="line"/>
      <point x="731" y="690" type="line"/>
      <point x="568" y="690" type="line" smooth="yes"/>
      <point x="510" y="690"/>
      <point x="480" y="659"/>
    </contour>
    <contour>
      <point x="413" y="0" type="line"/>
      <point x="716" y="0" type="line"/>
      <point x="716" y="103" type="line"/>
      <point x="413" y="103" type="line"/>
    </contour>
    <contour>
      <point x="407" y="431" type="line"/>
      <point x="731" y="431" type="line"/>
      <point x="731" y="534" type="line"/>
      <point x="407" y="534" type="line"/>
    </contour>
    <contour>
      <point x="292" y="431" type="line"/>
      <point x="475" y="431" type="line"/>
      <point x="475" y="534" type="line"/>
      <point x="292" y="534" type="line"/>
    </contour>
  </outline>
</glyph>
<glyph name="f_f_j" format="1">
  <advance width="1025.2069"/>
  <outline>
    <contour>
      <point x="103" y="601" type="curve" smooth="yes"/>
      <point x="103" y="0" type="line"/>
      <point x="246" y="0" type="line"/>
      <point x="246" y="587" type="line"/>
      <point x="354" y="587" type="line"/>
      <point x="354" y="690" type="line"/>
      <point x="191" y="690" type="line" smooth="yes"/>
      <point x="134" y="690"/>
      <point x="103" y="659"/>
    </contour>
    <contour>
      <point x="37" y="0" type="line"/>
      <point x="339" y="0" type="line"/>
      <point x="339" y="103" type="line"/>
      <point x="37" y="103" type="line"/>
    </contour>
    <contour>
      <point x="30" y="431" type="line"/>
      <point x="354" y="431" type="line"/>
      <point x="354" y="534" type="line"/>
      <point x="30" y="534" type="line"/>
    </contour>
    <contour>
      <point x="480" y="601" type="curve" smooth="yes"/>
      <point x="480" y="0" type="line"/>
      <point x="623" y="0" type="line"/>
      <point x="623" y="587" type="line"/>
      <point x="731" y="587" type="line"/>
      <point x="731" y="690" type="line"/>
      <point x="568" y="690" type="line" smooth="yes"/>
      <point x="510" y="690"/>
      <point x="480" y="659"/>
    </contour>
    <contour>
      <point x="413" y="0" type="line"/>
      <point x="716" y="0" type="line"/>
      <point x="716" y="103" type="line"/>
      <point x="413" y="103" type="line"/>
    </contour>
    <contour>
      <point x="407" y="431" type="line"/>
      <point x="731" y="431" type="line"/>
      <point x="731" y="534" type="line"/>
      <point x="407" y="534" type="line"/>
    </contour>
    <contour>
      <point x="759" y="-132" type="line"/>
      <point x="877" y="-132" type="line" smooth="yes"/>
      <point x="934" y="-132"/>
      <point x="965" y="-101"/>
      <point x="965" y="-43" type="curve" smooth="yes"/>
      <point x="965" y="534" type="line"/>
      <point x="765" y="534" type="line"/>
      <point x="765" y="431" type="line"/>
      <point x="822" y="431" type="line"/>
      <point x="822" y="-29" type="line"/>
      <point x="759" y="-29" type="line"/>
    </contour>
    <contour>
      <point x="816" y="574" type="line"/>
      <point x="969" y="574" type="line"/>
      <point x="969" y="690" type="line"/>
      <point x="816" y="690" type="line"/>
    </contour>
    <contour>
      <point x="687" y="534" type="line"/>
      <point x="687" y="431" type="line"/>
      <point x="795" y="431" type="line"/>
      <point x="795" y="534" type="line"/>
    </contour>
    <contour>
      <point x="287" y="431" type="line"/>
      <point x="469" y="431" type="line"/>
      <point x="469" y="534" type="line"/>
      <point x="287" y="534" type="line"/>
    </contour>
  </outline>
</glyph>
<glyph name="f_thorn" format="1">
  <advance width="973.08621"/>
  <outline>
    <contour>
      <point x="103" y="601" type="curve" smooth="yes"/>
      <point x="103" y="0" type="line"/>
      <point x="246" y="0" type="line"/>
      <point x="246" y="587" type="line"/>
      <point x="354" y="587" type="line"/>
      <point x="354" y="690" type="line"/>
      <point x="191" y="690" type="line" smooth="yes"/>
      <point x="134" y="690"/>
      <point x="103" y="659"/>
    </contour>
    <contour>
      <point x="37" y="0" type="line"/>
      <point x="339" y="0" type="line"/>
      <point x="339" y="103" type="line"/>
      <point x="37" y="103" type="line"/>
    </contour>
    <contour>
      <point x="30" y="431" type="line"/>
      <point x="354" y="431" type="line"/>
      <point x="354" y="534" type="line"/>
      <point x="30" y="534" type="line"/>
    </contour>
    <contour>
      <point x="437" y="-132" type="line"/>
      <point x="580" y="-132" type="line"/>
      <point x="580" y="-24" type="line" smooth="yes"/>
      <point x="580" y="3"/>
      <point x="577" y="35"/>
      <point x="570" y="98" type="curve"/>
      <point x="603" y="98" type="line"/>
      <point x="619" y="26"/>
      <point x="666" y="-10"/>
      <point x="739" y="-10" type="curve" smooth="yes"/>
      <point x="859" y="-10"/>
      <point x="938" y="94"/>
      <point x="938" y="267" type="curve" smooth="yes"/>
      <point x="938" y="440"/>
      <point x="859" y="544"/>
      <point x="739" y="544" type="curve" smooth="yes"/>
      <point x="666" y="544"/>
      <point x="619" y="508"/>
      <point x="603" y="436" type="curve"/>
      <point x="570" y="436" type="line"/>
      <point x="577" y="499"/>
      <point x="580" y="531"/>
      <point x="580" y="562" type="curve" smooth="yes"/>
      <point x="580" y="690" type="line"/>
      <point x="382" y="690" type="line"/>
      <point x="382" y="587" type="line"/>
      <point x="437" y="587" type="line"/>
    </contour>
    <contour>
      <point x="684" y="101" type="curve" smooth="yes"/>
      <point x="613" y="101"/>
      <point x="580" y="140"/>
      <point x="580" y="228" type="curve" smooth="yes"/>
      <point x="580" y="306" type="line" smooth="yes"/>
      <point x="580" y="394"/>
      <point x="613" y="433"/>
      <point x="684" y="433" type="curve" smooth="yes"/>
      <point x="755" y="433"/>
      <point x="787" y="394"/>
      <point x="787" y="306" type="curve" smooth="yes"/>
      <point x="787" y="228" type="line" smooth="yes"/>
      <point x="787" y="140"/>
      <point x="755" y="101"/>
    </contour>
    <contour>
      <point x="323" y="690" type="line"/>
      <point x="323" y="587" type="line"/>
      <point x="421" y="587" type="line"/>
      <point x="421" y="690" type="line"/>
    </contour>
  </outline>
</glyph>
<glyph name="g.ss02" format="1">
  <advance width="607.93103"/>
  <outline>
    <contour>
      <point x="288" y="-142" type="curve" smooth="yes"/>
      <point x="448" y="-142"/>
      <point x="533" y="-73"/>
      <point x="533" y="57" type="curve" smooth="yes"/>
      <point x="533" y="431" type="line"/>
      <point x="588" y="431" type="line"/>
      <point x="588" y="534" type="line"/>
      <point x="409" y="534" type="line"/>
      <point x="409" y="426" type="line"/>
      <point x="377" y="426" type="line"/>
      <point x="359" y="502"/>
      <point x="308" y="544"/>
      <point x="232" y="544" type="curve" smooth="yes"/>
      <point x="111" y="544"/>
      <point x="33" y="440"/>
      <point x="33" y="291" type="curve" smooth="yes"/>
      <point x="33" y="142"/>
      <point x="111" y="47"/>
      <point x="232" y="47" type="curve" smooth="yes"/>
      <point x="304" y="47"/>
      <point x="353" y="81"/>
      <point x="368" y="146" type="curve"/>
      <point x="400" y="146" type="line"/>
      <point x="395" y="104"/>
      <point x="393" y="80"/>
      <point x="392" y="57" type="curve" smooth="yes"/>
      <point x="389" y="-6"/>
      <point x="354" y="-35"/>
      <point x="282" y="-35" type="curve" smooth="yes"/>
      <point x="233" y="-35"/>
      <point x="195" y="-18"/>
      <point x="195" y="2" type="curve"/>
      <point x="195" y="4" type="line"/>
      <point x="52" y="4" type="line"/>
      <point x="75" y="-94"/>
      <point x="154" y="-142"/>
    </contour>
    <contour>
      <point x="287" y="149" type="curve" smooth="yes"/>
      <point x="216" y="149"/>
      <point x="183" y="188"/>
      <point x="183" y="261" type="curve" smooth="yes"/>
      <point x="183" y="321" type="line" smooth="yes"/>
      <point x="183" y="394"/>
      <point x="216" y="433"/>
      <point x="287" y="433" type="curve" smooth="yes"/>
      <point x="358" y="433"/>
      <point x="390" y="394"/>
      <point x="390" y="321" type="curve" smooth="yes"/>
      <point x="390" y="261" type="line" smooth="yes"/>
      <point x="390" y="188"/>
      <point x="358" y="149"/>
    </contour>
  </outline>
</glyph>
<glyph name="periodcentered.loclCAT" format="1">
  <advance width="152.99138"/>
  <outline>
    <contour>
      <point x="4" y="272" type="line"/>
      <point x="149" y="272" type="line"/>
      <point x="149" y="412" type="line"/>
      <point x="4" y="412" type="line"/>
    </contour>
  </outline>
</glyph>
<glyph name="t_t" format="1">
  <advance width="730.43103"/>
  <outline>
    <contour>
      <point x="179" y="0" type="curve" smooth="yes"/>
      <point x="334" y="0" type="line"/>
      <point x="334" y="103" type="line"/>
      <point x="234" y="103" type="line"/>
      <point x="234" y="641" type="line"/>
      <point x="139" y="641" type="line"/>
      <point x="91" y="534" type="line"/>
      <point x="91" y="89" type="line" smooth="yes"/>
      <point x="91" y="31"/>
      <point x="122" y="0"/>
    </contour>
    <contour>
      <point x="13" y="431" type="line"/>
      <point x="334" y="431" type="line"/>
      <point x="334" y="534" type="line"/>
      <point x="13" y="534" type="line"/>
    </contour>
    <contour>
      <point x="544" y="0" type="curve" smooth="yes"/>
      <point x="699" y="0" type="line"/>
      <point x="699" y="103" type="line"/>
      <point x="599" y="103" type="line"/>
      <point x="599" y="641" type="line"/>
      <point x="504" y="641" type="line"/>
      <point x="456" y="534" type="line"/>
      <point x="456" y="89" type="line" smooth="yes"/>
      <point x="456" y="31"/>
      <point x="487" y="0"/>
    </contour>
    <contour>
      <point x="379" y="431" type="line"/>
      <point x="699" y="431" type="line"/>
      <point x="699" y="534" type="line"/>
      <point x="379" y="534" type="line"/>
    </contour>
    <contour>
      <point x="199" y="534" type="line"/>
      <point x="199" y="431" type="line"/>
      <point x="496" y="431" type="line"/>
      <point x="496" y="534" type="line"/>
    </contour>
  </outline>
</glyph>
